<mxfile host="app.diagrams.net" agent="Mozilla/5.0 (X11; Ubuntu; Linux x86_64; rv:129.0) Gecko/20100101 Firefox/129.0" version="24.7.7">
  <diagram name="Страница — 1" id="dtMutiFH8A61woCl-kT9">
    <mxGraphModel dx="4213" dy="1317" grid="1" gridSize="10" guides="1" tooltips="1" connect="1" arrows="1" fold="1" page="1" pageScale="1" pageWidth="1920" pageHeight="1200" math="0" shadow="0">
      <root>
        <mxCell id="0" />
        <mxCell id="1" parent="0" />
        <mxCell id="MjxS12knRDxMqoVgSw0H-2" value="&lt;div style=&quot;font-size: 13px;&quot;&gt;&lt;font style=&quot;font-size: 20px;&quot;&gt;&lt;b&gt;Сервисы:&lt;/b&gt;&lt;/font&gt;&lt;/div&gt;" style="text;html=1;align=center;verticalAlign=middle;whiteSpace=wrap;rounded=0;" parent="1" vertex="1">
          <mxGeometry x="-765" y="40" width="125" height="30" as="geometry" />
        </mxCell>
        <mxCell id="MjxS12knRDxMqoVgSw0H-9" value="" style="group" parent="1" vertex="1" connectable="0">
          <mxGeometry x="-565" y="200" width="120" height="80" as="geometry" />
        </mxCell>
        <mxCell id="MjxS12knRDxMqoVgSw0H-4" value="" style="rounded=0;whiteSpace=wrap;html=1;" parent="MjxS12knRDxMqoVgSw0H-9" vertex="1">
          <mxGeometry width="120" height="80" as="geometry" />
        </mxCell>
        <mxCell id="MjxS12knRDxMqoVgSw0H-6" value="&lt;div&gt;Wallet&lt;/div&gt;" style="text;html=1;align=center;verticalAlign=middle;whiteSpace=wrap;rounded=0;" parent="MjxS12knRDxMqoVgSw0H-9" vertex="1">
          <mxGeometry x="30" y="25" width="60" height="30" as="geometry" />
        </mxCell>
        <mxCell id="MjxS12knRDxMqoVgSw0H-10" value="" style="group" parent="1" vertex="1" connectable="0">
          <mxGeometry x="-765" y="80" width="120" height="80" as="geometry" />
        </mxCell>
        <mxCell id="MjxS12knRDxMqoVgSw0H-1" value="" style="rounded=0;whiteSpace=wrap;html=1;" parent="MjxS12knRDxMqoVgSw0H-10" vertex="1">
          <mxGeometry width="120" height="80" as="geometry" />
        </mxCell>
        <mxCell id="MjxS12knRDxMqoVgSw0H-3" value="Backend" style="text;html=1;align=center;verticalAlign=middle;whiteSpace=wrap;rounded=0;" parent="MjxS12knRDxMqoVgSw0H-10" vertex="1">
          <mxGeometry x="30" y="25" width="60" height="30" as="geometry" />
        </mxCell>
        <mxCell id="MjxS12knRDxMqoVgSw0H-11" value="" style="group" parent="1" vertex="1" connectable="0">
          <mxGeometry x="-765" y="200" width="120" height="80" as="geometry" />
        </mxCell>
        <mxCell id="MjxS12knRDxMqoVgSw0H-7" value="" style="rounded=0;whiteSpace=wrap;html=1;" parent="MjxS12knRDxMqoVgSw0H-11" vertex="1">
          <mxGeometry width="120" height="80" as="geometry" />
        </mxCell>
        <mxCell id="MjxS12knRDxMqoVgSw0H-8" value="Frontend" style="text;html=1;align=center;verticalAlign=middle;whiteSpace=wrap;rounded=0;" parent="MjxS12knRDxMqoVgSw0H-11" vertex="1">
          <mxGeometry x="30" y="25" width="60" height="30" as="geometry" />
        </mxCell>
        <mxCell id="MjxS12knRDxMqoVgSw0H-13" value="" style="group" parent="1" vertex="1" connectable="0">
          <mxGeometry x="-565" y="80" width="120" height="80" as="geometry" />
        </mxCell>
        <mxCell id="MjxS12knRDxMqoVgSw0H-14" value="" style="rounded=0;whiteSpace=wrap;html=1;" parent="MjxS12knRDxMqoVgSw0H-13" vertex="1">
          <mxGeometry width="120" height="80" as="geometry" />
        </mxCell>
        <mxCell id="MjxS12knRDxMqoVgSw0H-15" value="Database" style="text;html=1;align=center;verticalAlign=middle;whiteSpace=wrap;rounded=0;" parent="MjxS12knRDxMqoVgSw0H-13" vertex="1">
          <mxGeometry x="30" y="25" width="60" height="30" as="geometry" />
        </mxCell>
        <mxCell id="MjxS12knRDxMqoVgSw0H-17" value="&lt;div style=&quot;font-size: 13px;&quot; align=&quot;left&quot;&gt;&lt;font style=&quot;font-size: 20px;&quot;&gt;&lt;b&gt;Пайплайн обработки заявки:&lt;/b&gt;&lt;/font&gt;&lt;/div&gt;" style="text;html=1;align=left;verticalAlign=middle;whiteSpace=wrap;rounded=0;" parent="1" vertex="1">
          <mxGeometry x="-1085" y="70" width="210" height="65" as="geometry" />
        </mxCell>
        <mxCell id="MjxS12knRDxMqoVgSw0H-19" value="" style="group" parent="1" vertex="1" connectable="0">
          <mxGeometry x="-1085" y="150" width="160" height="60" as="geometry" />
        </mxCell>
        <mxCell id="MjxS12knRDxMqoVgSw0H-12" value="&lt;div&gt;Пользователь заходит на сайт&lt;/div&gt;" style="rounded=1;whiteSpace=wrap;html=1;" parent="MjxS12knRDxMqoVgSw0H-19" vertex="1">
          <mxGeometry width="160" height="60" as="geometry" />
        </mxCell>
        <mxCell id="MjxS12knRDxMqoVgSw0H-20" value="" style="group" parent="1" vertex="1" connectable="0">
          <mxGeometry x="-1085" y="240" width="220" height="60" as="geometry" />
        </mxCell>
        <mxCell id="MjxS12knRDxMqoVgSw0H-21" value="&lt;div&gt;Ему предлагается создать заявку&lt;/div&gt;" style="rounded=1;whiteSpace=wrap;html=1;" parent="MjxS12knRDxMqoVgSw0H-20" vertex="1">
          <mxGeometry width="220" height="60" as="geometry" />
        </mxCell>
        <mxCell id="MjxS12knRDxMqoVgSw0H-23" value="" style="group" parent="1" vertex="1" connectable="0">
          <mxGeometry x="-1085" y="330" width="220" height="60" as="geometry" />
        </mxCell>
        <mxCell id="MjxS12knRDxMqoVgSw0H-24" value="Пользователь создает заявку на обмен" style="rounded=1;whiteSpace=wrap;html=1;" parent="MjxS12knRDxMqoVgSw0H-23" vertex="1">
          <mxGeometry width="220" height="60" as="geometry" />
        </mxCell>
        <mxCell id="MjxS12knRDxMqoVgSw0H-26" value="Заявка:" style="swimlane;fontStyle=0;childLayout=stackLayout;horizontal=1;startSize=30;horizontalStack=0;resizeParent=1;resizeParentMax=0;resizeLast=0;collapsible=1;marginBottom=0;whiteSpace=wrap;html=1;" parent="1" vertex="1">
          <mxGeometry x="-765" y="310" width="300" height="210" as="geometry">
            <mxRectangle x="480" y="525" width="80" height="30" as="alternateBounds" />
          </mxGeometry>
        </mxCell>
        <mxCell id="MjxS12knRDxMqoVgSw0H-27" value="Какую сумму обменять" style="text;strokeColor=default;fillColor=none;align=left;verticalAlign=middle;spacingLeft=4;spacingRight=4;overflow=hidden;points=[[0,0.5],[1,0.5]];portConstraint=eastwest;rotatable=0;whiteSpace=wrap;html=1;" parent="MjxS12knRDxMqoVgSw0H-26" vertex="1">
          <mxGeometry y="30" width="300" height="30" as="geometry" />
        </mxCell>
        <mxCell id="MjxS12knRDxMqoVgSw0H-28" value="&lt;div&gt;Какой сетью воспользоваться&lt;/div&gt;" style="text;strokeColor=default;fillColor=none;align=left;verticalAlign=middle;spacingLeft=4;spacingRight=4;overflow=hidden;points=[[0,0.5],[1,0.5]];portConstraint=eastwest;rotatable=0;whiteSpace=wrap;html=1;" parent="MjxS12knRDxMqoVgSw0H-26" vertex="1">
          <mxGeometry y="60" width="300" height="30" as="geometry" />
        </mxCell>
        <mxCell id="MjxS12knRDxMqoVgSw0H-30" value="Валюта которую он бы хотел получить" style="text;strokeColor=default;fillColor=none;align=left;verticalAlign=middle;spacingLeft=4;spacingRight=4;overflow=hidden;points=[[0,0.5],[1,0.5]];portConstraint=eastwest;rotatable=0;whiteSpace=wrap;html=1;" parent="MjxS12knRDxMqoVgSw0H-26" vertex="1">
          <mxGeometry y="90" width="300" height="30" as="geometry" />
        </mxCell>
        <mxCell id="MjxS12knRDxMqoVgSw0H-31" value="Данные получателя, куда отправить деньги" style="text;strokeColor=default;fillColor=none;align=left;verticalAlign=middle;spacingLeft=4;spacingRight=4;overflow=hidden;points=[[0,0.5],[1,0.5]];portConstraint=eastwest;rotatable=0;whiteSpace=wrap;html=1;" parent="MjxS12knRDxMqoVgSw0H-26" vertex="1">
          <mxGeometry y="120" width="300" height="30" as="geometry" />
        </mxCell>
        <mxCell id="MjxS12knRDxMqoVgSw0H-32" value="Контакты по которым можно связаться" style="text;strokeColor=default;fillColor=none;align=left;verticalAlign=middle;spacingLeft=4;spacingRight=4;overflow=hidden;points=[[0,0.5],[1,0.5]];portConstraint=eastwest;rotatable=0;whiteSpace=wrap;html=1;" parent="MjxS12knRDxMqoVgSw0H-26" vertex="1">
          <mxGeometry y="150" width="300" height="30" as="geometry" />
        </mxCell>
        <mxCell id="MjxS12knRDxMqoVgSw0H-33" value="(Опционально) определенный менеджер" style="text;strokeColor=default;fillColor=none;align=left;verticalAlign=middle;spacingLeft=4;spacingRight=4;overflow=hidden;points=[[0,0.5],[1,0.5]];portConstraint=eastwest;rotatable=0;whiteSpace=wrap;html=1;" parent="MjxS12knRDxMqoVgSw0H-26" vertex="1">
          <mxGeometry y="180" width="300" height="30" as="geometry" />
        </mxCell>
        <mxCell id="MjxS12knRDxMqoVgSw0H-37" value="" style="group" parent="1" vertex="1" connectable="0">
          <mxGeometry x="-1085" y="431" width="260" height="89" as="geometry" />
        </mxCell>
        <mxCell id="MjxS12knRDxMqoVgSw0H-38" value="Заявка создается в базе данных с определенным статусом" style="rounded=1;whiteSpace=wrap;html=1;" parent="MjxS12knRDxMqoVgSw0H-37" vertex="1">
          <mxGeometry width="233.10344827586206" height="59.33" as="geometry" />
        </mxCell>
        <mxCell id="MjxS12knRDxMqoVgSw0H-44" value="Статусы заявок" style="swimlane;fontStyle=0;childLayout=stackLayout;horizontal=1;startSize=30;horizontalStack=0;resizeParent=1;resizeParentMax=0;resizeLast=0;collapsible=1;marginBottom=0;whiteSpace=wrap;html=1;" parent="1" vertex="1">
          <mxGeometry x="-755" y="570" width="220" height="120" as="geometry" />
        </mxCell>
        <mxCell id="MjxS12knRDxMqoVgSw0H-46" value="Не оплачено" style="text;strokeColor=default;fillColor=none;align=left;verticalAlign=middle;spacingLeft=4;spacingRight=4;overflow=hidden;points=[[0,0.5],[1,0.5]];portConstraint=eastwest;rotatable=0;whiteSpace=wrap;html=1;" parent="MjxS12knRDxMqoVgSw0H-44" vertex="1">
          <mxGeometry y="30" width="220" height="30" as="geometry" />
        </mxCell>
        <mxCell id="MjxS12knRDxMqoVgSw0H-47" value="Оплачена, ждет перевода " style="text;strokeColor=default;fillColor=none;align=left;verticalAlign=middle;spacingLeft=4;spacingRight=4;overflow=hidden;points=[[0,0.5],[1,0.5]];portConstraint=eastwest;rotatable=0;whiteSpace=wrap;html=1;" parent="MjxS12knRDxMqoVgSw0H-44" vertex="1">
          <mxGeometry y="60" width="220" height="30" as="geometry" />
        </mxCell>
        <mxCell id="MjxS12knRDxMqoVgSw0H-48" value="Перевод выполнен, закрыта" style="text;strokeColor=default;fillColor=none;align=left;verticalAlign=middle;spacingLeft=4;spacingRight=4;overflow=hidden;points=[[0,0.5],[1,0.5]];portConstraint=eastwest;rotatable=0;whiteSpace=wrap;html=1;" parent="MjxS12knRDxMqoVgSw0H-44" vertex="1">
          <mxGeometry y="90" width="220" height="30" as="geometry" />
        </mxCell>
        <mxCell id="MjxS12knRDxMqoVgSw0H-50" value="" style="group" parent="1" vertex="1" connectable="0">
          <mxGeometry x="-1085" y="530" width="270" height="60" as="geometry" />
        </mxCell>
        <mxCell id="MjxS12knRDxMqoVgSw0H-106" style="edgeStyle=orthogonalEdgeStyle;rounded=0;orthogonalLoop=1;jettySize=auto;html=1;exitX=0.5;exitY=1;exitDx=0;exitDy=0;" parent="MjxS12knRDxMqoVgSw0H-50" source="MjxS12knRDxMqoVgSw0H-51" edge="1">
          <mxGeometry relative="1" as="geometry">
            <mxPoint x="135.1764705882356" y="100.99999999999977" as="targetPoint" />
          </mxGeometry>
        </mxCell>
        <mxCell id="MjxS12knRDxMqoVgSw0H-51" value="У пользователя появляется заявка с адресом кошелька и суммой к оплате" style="rounded=1;whiteSpace=wrap;html=1;" parent="MjxS12knRDxMqoVgSw0H-50" vertex="1">
          <mxGeometry width="270" height="60" as="geometry" />
        </mxCell>
        <mxCell id="MjxS12knRDxMqoVgSw0H-57" style="edgeStyle=orthogonalEdgeStyle;rounded=0;orthogonalLoop=1;jettySize=auto;html=1;exitX=0.5;exitY=1;exitDx=0;exitDy=0;entryX=0.5;entryY=0;entryDx=0;entryDy=0;" parent="1" source="MjxS12knRDxMqoVgSw0H-12" target="MjxS12knRDxMqoVgSw0H-21" edge="1">
          <mxGeometry relative="1" as="geometry" />
        </mxCell>
        <mxCell id="MjxS12knRDxMqoVgSw0H-58" style="edgeStyle=orthogonalEdgeStyle;rounded=0;orthogonalLoop=1;jettySize=auto;html=1;exitX=0.5;exitY=1;exitDx=0;exitDy=0;" parent="1" source="MjxS12knRDxMqoVgSw0H-21" target="MjxS12knRDxMqoVgSw0H-24" edge="1">
          <mxGeometry relative="1" as="geometry">
            <Array as="points">
              <mxPoint x="-975" y="310" />
              <mxPoint x="-945" y="310" />
            </Array>
          </mxGeometry>
        </mxCell>
        <mxCell id="MjxS12knRDxMqoVgSw0H-60" style="edgeStyle=orthogonalEdgeStyle;rounded=0;orthogonalLoop=1;jettySize=auto;html=1;exitX=0.5;exitY=1;exitDx=0;exitDy=0;entryX=0.5;entryY=0;entryDx=0;entryDy=0;" parent="1" source="MjxS12knRDxMqoVgSw0H-38" target="MjxS12knRDxMqoVgSw0H-51" edge="1">
          <mxGeometry relative="1" as="geometry" />
        </mxCell>
        <mxCell id="MjxS12knRDxMqoVgSw0H-63" style="edgeStyle=orthogonalEdgeStyle;rounded=0;orthogonalLoop=1;jettySize=auto;html=1;exitX=1;exitY=0.5;exitDx=0;exitDy=0;entryX=-0.008;entryY=0.094;entryDx=0;entryDy=0;entryPerimeter=0;" parent="1" source="MjxS12knRDxMqoVgSw0H-24" target="MjxS12knRDxMqoVgSw0H-26" edge="1">
          <mxGeometry relative="1" as="geometry" />
        </mxCell>
        <mxCell id="MjxS12knRDxMqoVgSw0H-64" style="edgeStyle=orthogonalEdgeStyle;rounded=0;orthogonalLoop=1;jettySize=auto;html=1;exitX=1;exitY=0.5;exitDx=0;exitDy=0;entryX=0;entryY=0.25;entryDx=0;entryDy=0;" parent="1" source="MjxS12knRDxMqoVgSw0H-38" target="MjxS12knRDxMqoVgSw0H-44" edge="1">
          <mxGeometry relative="1" as="geometry" />
        </mxCell>
        <mxCell id="MjxS12knRDxMqoVgSw0H-74" value="" style="group" parent="1" vertex="1" connectable="0">
          <mxGeometry x="-1065" y="630" width="270" height="60" as="geometry" />
        </mxCell>
        <mxCell id="MjxS12knRDxMqoVgSw0H-75" value="Пользователь оплачивает заявку" style="rounded=1;whiteSpace=wrap;html=1;" parent="MjxS12knRDxMqoVgSw0H-74" vertex="1">
          <mxGeometry width="270" height="60" as="geometry" />
        </mxCell>
        <mxCell id="MjxS12knRDxMqoVgSw0H-142" style="edgeStyle=orthogonalEdgeStyle;rounded=0;orthogonalLoop=1;jettySize=auto;html=1;exitX=0.5;exitY=1;exitDx=0;exitDy=0;" parent="1" source="MjxS12knRDxMqoVgSw0H-77" target="MjxS12knRDxMqoVgSw0H-78" edge="1">
          <mxGeometry relative="1" as="geometry" />
        </mxCell>
        <mxCell id="MjxS12knRDxMqoVgSw0H-77" value="Сервис кошелька" style="rounded=0;whiteSpace=wrap;html=1;" parent="1" vertex="1">
          <mxGeometry x="-1285" y="600" width="120" height="60" as="geometry" />
        </mxCell>
        <mxCell id="MjxS12knRDxMqoVgSw0H-141" style="edgeStyle=orthogonalEdgeStyle;rounded=0;orthogonalLoop=1;jettySize=auto;html=1;exitX=1;exitY=0.5;exitDx=0;exitDy=0;entryX=0.5;entryY=0;entryDx=0;entryDy=0;" parent="1" source="MjxS12knRDxMqoVgSw0H-78" target="MjxS12knRDxMqoVgSw0H-138" edge="1">
          <mxGeometry relative="1" as="geometry" />
        </mxCell>
        <mxCell id="MjxS12knRDxMqoVgSw0H-146" style="edgeStyle=orthogonalEdgeStyle;rounded=0;orthogonalLoop=1;jettySize=auto;html=1;exitX=0.5;exitY=1;exitDx=0;exitDy=0;" parent="1" source="MjxS12knRDxMqoVgSw0H-78" target="MjxS12knRDxMqoVgSw0H-145" edge="1">
          <mxGeometry relative="1" as="geometry" />
        </mxCell>
        <mxCell id="MjxS12knRDxMqoVgSw0H-78" value="Сервис кошелька делает запрос на обновление статуса заявки" style="rounded=1;whiteSpace=wrap;html=1;" parent="1" vertex="1">
          <mxGeometry x="-1375" y="700" width="270" height="70" as="geometry" />
        </mxCell>
        <mxCell id="MjxS12knRDxMqoVgSw0H-107" style="edgeStyle=orthogonalEdgeStyle;rounded=0;orthogonalLoop=1;jettySize=auto;html=1;exitX=0.5;exitY=1;exitDx=0;exitDy=0;entryX=0;entryY=0.5;entryDx=0;entryDy=0;" parent="1" source="MjxS12knRDxMqoVgSw0H-66" target="MjxS12knRDxMqoVgSw0H-88" edge="1">
          <mxGeometry relative="1" as="geometry" />
        </mxCell>
        <mxCell id="MjxS12knRDxMqoVgSw0H-66" value="У менеджера создается заявка со статусом &quot;Не оплачено&quot;" style="rounded=1;whiteSpace=wrap;html=1;" parent="1" vertex="1">
          <mxGeometry x="-1685" y="800" width="270" height="60" as="geometry" />
        </mxCell>
        <mxCell id="MjxS12knRDxMqoVgSw0H-83" style="edgeStyle=orthogonalEdgeStyle;rounded=0;orthogonalLoop=1;jettySize=auto;html=1;exitX=1;exitY=0.5;exitDx=0;exitDy=0;entryX=0;entryY=0.5;entryDx=0;entryDy=0;" parent="1" source="MjxS12knRDxMqoVgSw0H-79" target="MjxS12knRDxMqoVgSw0H-80" edge="1">
          <mxGeometry relative="1" as="geometry" />
        </mxCell>
        <mxCell id="MjxS12knRDxMqoVgSw0H-87" style="edgeStyle=orthogonalEdgeStyle;rounded=0;orthogonalLoop=1;jettySize=auto;html=1;exitX=0.5;exitY=1;exitDx=0;exitDy=0;entryX=0.5;entryY=0;entryDx=0;entryDy=0;" parent="1" source="MjxS12knRDxMqoVgSw0H-79" target="MjxS12knRDxMqoVgSw0H-82" edge="1">
          <mxGeometry relative="1" as="geometry" />
        </mxCell>
        <mxCell id="MjxS12knRDxMqoVgSw0H-79" value="&lt;div&gt;Статус заявки обновляется на сервере&lt;/div&gt;" style="rounded=1;whiteSpace=wrap;html=1;" parent="1" vertex="1">
          <mxGeometry x="-1095" y="920" width="280" height="60" as="geometry" />
        </mxCell>
        <mxCell id="MjxS12knRDxMqoVgSw0H-80" value="Заявка обновляется у пользователя на статус &quot;Оплачено&quot;" style="rounded=1;whiteSpace=wrap;html=1;" parent="1" vertex="1">
          <mxGeometry x="-735" y="870" width="280" height="60" as="geometry" />
        </mxCell>
        <mxCell id="MjxS12knRDxMqoVgSw0H-89" style="edgeStyle=orthogonalEdgeStyle;rounded=0;orthogonalLoop=1;jettySize=auto;html=1;exitX=0.5;exitY=1;exitDx=0;exitDy=0;" parent="1" source="MjxS12knRDxMqoVgSw0H-82" target="MjxS12knRDxMqoVgSw0H-88" edge="1">
          <mxGeometry relative="1" as="geometry" />
        </mxCell>
        <mxCell id="MjxS12knRDxMqoVgSw0H-82" value="Заявка обновляется у менеджера на статус &quot;Оплачено&quot;" style="rounded=1;whiteSpace=wrap;html=1;" parent="1" vertex="1">
          <mxGeometry x="-1095" y="1010" width="280" height="60" as="geometry" />
        </mxCell>
        <mxCell id="MjxS12knRDxMqoVgSw0H-84" style="edgeStyle=orthogonalEdgeStyle;rounded=0;orthogonalLoop=1;jettySize=auto;html=1;exitX=0;exitY=0.5;exitDx=0;exitDy=0;entryX=1;entryY=0.5;entryDx=0;entryDy=0;" parent="1" source="MjxS12knRDxMqoVgSw0H-75" target="MjxS12knRDxMqoVgSw0H-77" edge="1">
          <mxGeometry relative="1" as="geometry" />
        </mxCell>
        <mxCell id="MjxS12knRDxMqoVgSw0H-92" style="edgeStyle=orthogonalEdgeStyle;rounded=0;orthogonalLoop=1;jettySize=auto;html=1;exitX=0.5;exitY=1;exitDx=0;exitDy=0;entryX=0.5;entryY=0;entryDx=0;entryDy=0;" parent="1" source="MjxS12knRDxMqoVgSw0H-88" target="MjxS12knRDxMqoVgSw0H-90" edge="1">
          <mxGeometry relative="1" as="geometry" />
        </mxCell>
        <mxCell id="MjxS12knRDxMqoVgSw0H-88" value="Менеджер совершает перевод" style="rounded=1;whiteSpace=wrap;html=1;" parent="1" vertex="1">
          <mxGeometry x="-1095" y="1100" width="280" height="60" as="geometry" />
        </mxCell>
        <mxCell id="MjxS12knRDxMqoVgSw0H-93" style="edgeStyle=orthogonalEdgeStyle;rounded=0;orthogonalLoop=1;jettySize=auto;html=1;exitX=0.5;exitY=1;exitDx=0;exitDy=0;entryX=0.5;entryY=0;entryDx=0;entryDy=0;" parent="1" source="MjxS12knRDxMqoVgSw0H-90" target="MjxS12knRDxMqoVgSw0H-91" edge="1">
          <mxGeometry relative="1" as="geometry" />
        </mxCell>
        <mxCell id="MjxS12knRDxMqoVgSw0H-90" value="Менеджер закрывает заявку подкрепляя ее документами" style="rounded=1;whiteSpace=wrap;html=1;" parent="1" vertex="1">
          <mxGeometry x="-1095" y="1200" width="280" height="60" as="geometry" />
        </mxCell>
        <mxCell id="MjxS12knRDxMqoVgSw0H-95" style="edgeStyle=orthogonalEdgeStyle;rounded=0;orthogonalLoop=1;jettySize=auto;html=1;exitX=1;exitY=0.5;exitDx=0;exitDy=0;entryX=0;entryY=0.5;entryDx=0;entryDy=0;" parent="1" source="MjxS12knRDxMqoVgSw0H-91" target="MjxS12knRDxMqoVgSw0H-94" edge="1">
          <mxGeometry relative="1" as="geometry" />
        </mxCell>
        <mxCell id="MjxS12knRDxMqoVgSw0H-91" value="Статус заявки обновляется в базе данных при помощи бэкэнда" style="rounded=1;whiteSpace=wrap;html=1;" parent="1" vertex="1">
          <mxGeometry x="-1095" y="1299" width="280" height="60" as="geometry" />
        </mxCell>
        <mxCell id="MjxS12knRDxMqoVgSw0H-94" value="Заявка обновляется у пользователя на статус &quot;Перевод выполнен, Закрыта&quot;" style="rounded=1;whiteSpace=wrap;html=1;" parent="1" vertex="1">
          <mxGeometry x="-735" y="970" width="280" height="60" as="geometry" />
        </mxCell>
        <mxCell id="MjxS12knRDxMqoVgSw0H-110" style="edgeStyle=orthogonalEdgeStyle;rounded=0;orthogonalLoop=1;jettySize=auto;html=1;exitX=0.5;exitY=1;exitDx=0;exitDy=0;entryX=0.5;entryY=0;entryDx=0;entryDy=0;" parent="1" source="MjxS12knRDxMqoVgSw0H-96" target="MjxS12knRDxMqoVgSw0H-109" edge="1">
          <mxGeometry relative="1" as="geometry" />
        </mxCell>
        <mxCell id="MjxS12knRDxMqoVgSw0H-96" value="Бэкэнд" style="rounded=0;whiteSpace=wrap;html=1;" parent="1" vertex="1">
          <mxGeometry x="-1385" y="434.5" width="120" height="60" as="geometry" />
        </mxCell>
        <mxCell id="MjxS12knRDxMqoVgSw0H-98" style="edgeStyle=orthogonalEdgeStyle;rounded=0;orthogonalLoop=1;jettySize=auto;html=1;exitX=0;exitY=0.5;exitDx=0;exitDy=0;entryX=1;entryY=0.5;entryDx=0;entryDy=0;" parent="1" source="MjxS12knRDxMqoVgSw0H-38" target="MjxS12knRDxMqoVgSw0H-96" edge="1">
          <mxGeometry relative="1" as="geometry" />
        </mxCell>
        <mxCell id="MjxS12knRDxMqoVgSw0H-111" style="edgeStyle=orthogonalEdgeStyle;rounded=0;orthogonalLoop=1;jettySize=auto;html=1;exitX=1;exitY=0.5;exitDx=0;exitDy=0;entryX=0;entryY=0.5;entryDx=0;entryDy=0;" parent="1" source="MjxS12knRDxMqoVgSw0H-109" target="MjxS12knRDxMqoVgSw0H-51" edge="1">
          <mxGeometry relative="1" as="geometry" />
        </mxCell>
        <mxCell id="MjxS12knRDxMqoVgSw0H-112" style="edgeStyle=orthogonalEdgeStyle;rounded=0;orthogonalLoop=1;jettySize=auto;html=1;exitX=0.5;exitY=1;exitDx=0;exitDy=0;entryX=0.5;entryY=0;entryDx=0;entryDy=0;" parent="1" source="MjxS12knRDxMqoVgSw0H-109" target="MjxS12knRDxMqoVgSw0H-66" edge="1">
          <mxGeometry relative="1" as="geometry" />
        </mxCell>
        <mxCell id="MjxS12knRDxMqoVgSw0H-109" value="Бэк создает заявку в БД" style="rounded=1;whiteSpace=wrap;html=1;" parent="1" vertex="1">
          <mxGeometry x="-1539" y="540" width="230" height="60" as="geometry" />
        </mxCell>
        <mxCell id="MjxS12knRDxMqoVgSw0H-113" value="Список валют, с которыми работает сервис" style="swimlane;fontStyle=0;childLayout=stackLayout;horizontal=1;startSize=30;horizontalStack=0;resizeParent=1;resizeParentMax=0;resizeLast=0;collapsible=1;marginBottom=0;whiteSpace=wrap;html=1;" parent="1" vertex="1">
          <mxGeometry x="-415" y="509" width="280" height="150" as="geometry" />
        </mxCell>
        <mxCell id="MjxS12knRDxMqoVgSw0H-114" value="&lt;div&gt;Рубли&lt;/div&gt;" style="text;strokeColor=default;fillColor=none;align=left;verticalAlign=middle;spacingLeft=4;spacingRight=4;overflow=hidden;points=[[0,0.5],[1,0.5]];portConstraint=eastwest;rotatable=0;whiteSpace=wrap;html=1;" parent="MjxS12knRDxMqoVgSw0H-113" vertex="1">
          <mxGeometry y="30" width="280" height="30" as="geometry" />
        </mxCell>
        <mxCell id="MjxS12knRDxMqoVgSw0H-115" value="Тенге" style="text;strokeColor=default;fillColor=none;align=left;verticalAlign=middle;spacingLeft=4;spacingRight=4;overflow=hidden;points=[[0,0.5],[1,0.5]];portConstraint=eastwest;rotatable=0;whiteSpace=wrap;html=1;" parent="MjxS12knRDxMqoVgSw0H-113" vertex="1">
          <mxGeometry y="60" width="280" height="30" as="geometry" />
        </mxCell>
        <mxCell id="MjxS12knRDxMqoVgSw0H-116" value="Евро" style="text;strokeColor=default;fillColor=none;align=left;verticalAlign=middle;spacingLeft=4;spacingRight=4;overflow=hidden;points=[[0,0.5],[1,0.5]];portConstraint=eastwest;rotatable=0;whiteSpace=wrap;html=1;" parent="MjxS12knRDxMqoVgSw0H-113" vertex="1">
          <mxGeometry y="90" width="280" height="30" as="geometry" />
        </mxCell>
        <mxCell id="MjxS12knRDxMqoVgSw0H-117" value="И другие..." style="text;strokeColor=default;fillColor=none;align=left;verticalAlign=middle;spacingLeft=4;spacingRight=4;overflow=hidden;points=[[0,0.5],[1,0.5]];portConstraint=eastwest;rotatable=0;whiteSpace=wrap;html=1;" parent="MjxS12knRDxMqoVgSw0H-113" vertex="1">
          <mxGeometry y="120" width="280" height="30" as="geometry" />
        </mxCell>
        <mxCell id="MjxS12knRDxMqoVgSw0H-118" style="edgeStyle=orthogonalEdgeStyle;rounded=0;orthogonalLoop=1;jettySize=auto;html=1;exitX=1;exitY=0.5;exitDx=0;exitDy=0;entryX=0;entryY=0.5;entryDx=0;entryDy=0;" parent="1" source="MjxS12knRDxMqoVgSw0H-30" target="MjxS12knRDxMqoVgSw0H-113" edge="1">
          <mxGeometry relative="1" as="geometry" />
        </mxCell>
        <mxCell id="MjxS12knRDxMqoVgSw0H-119" value="Список сетей" style="swimlane;fontStyle=0;childLayout=stackLayout;horizontal=1;startSize=30;horizontalStack=0;resizeParent=1;resizeParentMax=0;resizeLast=0;collapsible=1;marginBottom=0;whiteSpace=wrap;html=1;" parent="1" vertex="1">
          <mxGeometry x="-375" y="330" width="140" height="120" as="geometry" />
        </mxCell>
        <mxCell id="MjxS12knRDxMqoVgSw0H-120" value="ERC-20" style="text;strokeColor=default;fillColor=none;align=left;verticalAlign=middle;spacingLeft=4;spacingRight=4;overflow=hidden;points=[[0,0.5],[1,0.5]];portConstraint=eastwest;rotatable=0;whiteSpace=wrap;html=1;" parent="MjxS12knRDxMqoVgSw0H-119" vertex="1">
          <mxGeometry y="30" width="140" height="30" as="geometry" />
        </mxCell>
        <mxCell id="MjxS12knRDxMqoVgSw0H-121" value="TRC-20" style="text;strokeColor=default;fillColor=none;align=left;verticalAlign=middle;spacingLeft=4;spacingRight=4;overflow=hidden;points=[[0,0.5],[1,0.5]];portConstraint=eastwest;rotatable=0;whiteSpace=wrap;html=1;" parent="MjxS12knRDxMqoVgSw0H-119" vertex="1">
          <mxGeometry y="60" width="140" height="30" as="geometry" />
        </mxCell>
        <mxCell id="MjxS12knRDxMqoVgSw0H-122" value="BTC-20" style="text;strokeColor=default;fillColor=none;align=left;verticalAlign=middle;spacingLeft=4;spacingRight=4;overflow=hidden;points=[[0,0.5],[1,0.5]];portConstraint=eastwest;rotatable=0;whiteSpace=wrap;html=1;" parent="MjxS12knRDxMqoVgSw0H-119" vertex="1">
          <mxGeometry y="90" width="140" height="30" as="geometry" />
        </mxCell>
        <mxCell id="MjxS12knRDxMqoVgSw0H-129" style="edgeStyle=orthogonalEdgeStyle;rounded=0;orthogonalLoop=1;jettySize=auto;html=1;exitX=0.16;exitY=0.55;exitDx=0;exitDy=0;exitPerimeter=0;entryX=1;entryY=0.5;entryDx=0;entryDy=0;" parent="1" source="MjxS12knRDxMqoVgSw0H-125" target="MjxS12knRDxMqoVgSw0H-128" edge="1">
          <mxGeometry relative="1" as="geometry" />
        </mxCell>
        <mxCell id="MjxS12knRDxMqoVgSw0H-125" value="Необходимо понимать лимит, на который пользователь может расчитывать" style="ellipse;shape=cloud;whiteSpace=wrap;html=1;" parent="1" vertex="1">
          <mxGeometry x="-1325" y="210" width="160" height="160" as="geometry" />
        </mxCell>
        <mxCell id="MjxS12knRDxMqoVgSw0H-126" style="edgeStyle=orthogonalEdgeStyle;rounded=0;orthogonalLoop=1;jettySize=auto;html=1;exitX=0;exitY=0.5;exitDx=0;exitDy=0;entryX=0.875;entryY=0.5;entryDx=0;entryDy=0;entryPerimeter=0;" parent="1" source="MjxS12knRDxMqoVgSw0H-21" target="MjxS12knRDxMqoVgSw0H-125" edge="1">
          <mxGeometry relative="1" as="geometry" />
        </mxCell>
        <mxCell id="MjxS12knRDxMqoVgSw0H-127" style="edgeStyle=orthogonalEdgeStyle;rounded=0;orthogonalLoop=1;jettySize=auto;html=1;exitX=1;exitY=0.5;exitDx=0;exitDy=0;" parent="1" source="MjxS12knRDxMqoVgSw0H-28" target="MjxS12knRDxMqoVgSw0H-119" edge="1">
          <mxGeometry relative="1" as="geometry" />
        </mxCell>
        <mxCell id="MjxS12knRDxMqoVgSw0H-132" style="edgeStyle=orthogonalEdgeStyle;rounded=0;orthogonalLoop=1;jettySize=auto;html=1;exitX=0.5;exitY=1;exitDx=0;exitDy=0;" parent="1" source="MjxS12knRDxMqoVgSw0H-128" edge="1">
          <mxGeometry relative="1" as="geometry">
            <mxPoint x="-1695" y="279.9999999999998" as="targetPoint" />
          </mxGeometry>
        </mxCell>
        <mxCell id="MjxS12knRDxMqoVgSw0H-128" value="Для того чтобы понимать лимит нужно знать баланс каждого менеджера, а так же после каждой сделки вычитать данный баланс, а при пополнении кошельков прибавлять, для этого нужны отдельные эндпоинты и интерфейс" style="text;html=1;align=center;verticalAlign=middle;whiteSpace=wrap;rounded=0;" parent="1" vertex="1">
          <mxGeometry x="-1698" y="130" width="320" height="110" as="geometry" />
        </mxCell>
        <mxCell id="MjxS12knRDxMqoVgSw0H-137" style="edgeStyle=orthogonalEdgeStyle;rounded=0;orthogonalLoop=1;jettySize=auto;html=1;exitX=1;exitY=0.5;exitDx=0;exitDy=0;entryX=0;entryY=0.5;entryDx=0;entryDy=0;" parent="1" source="MjxS12knRDxMqoVgSw0H-130" target="MjxS12knRDxMqoVgSw0H-133" edge="1">
          <mxGeometry relative="1" as="geometry" />
        </mxCell>
        <mxCell id="MjxS12knRDxMqoVgSw0H-130" value="Помимо пользователей нужна еще одна сущность типа &quot;Сотрудник&quot; чтобы у добавить поле баланс и роль" style="text;html=1;align=center;verticalAlign=middle;whiteSpace=wrap;rounded=0;" parent="1" vertex="1">
          <mxGeometry x="-1785" y="300" width="190" height="30" as="geometry" />
        </mxCell>
        <mxCell id="MjxS12knRDxMqoVgSw0H-133" value="Роли сотрудников" style="swimlane;fontStyle=0;childLayout=stackLayout;horizontal=1;startSize=30;horizontalStack=0;resizeParent=1;resizeParentMax=0;resizeLast=0;collapsible=1;marginBottom=0;whiteSpace=wrap;html=1;" parent="1" vertex="1">
          <mxGeometry x="-1555" y="330" width="140" height="120" as="geometry" />
        </mxCell>
        <mxCell id="MjxS12knRDxMqoVgSw0H-134" value="Менеджер" style="text;strokeColor=none;fillColor=none;align=left;verticalAlign=middle;spacingLeft=4;spacingRight=4;overflow=hidden;points=[[0,0.5],[1,0.5]];portConstraint=eastwest;rotatable=0;whiteSpace=wrap;html=1;" parent="MjxS12knRDxMqoVgSw0H-133" vertex="1">
          <mxGeometry y="30" width="140" height="30" as="geometry" />
        </mxCell>
        <mxCell id="MjxS12knRDxMqoVgSw0H-135" value="Старший менеджер" style="text;strokeColor=none;fillColor=none;align=left;verticalAlign=middle;spacingLeft=4;spacingRight=4;overflow=hidden;points=[[0,0.5],[1,0.5]];portConstraint=eastwest;rotatable=0;whiteSpace=wrap;html=1;" parent="MjxS12knRDxMqoVgSw0H-133" vertex="1">
          <mxGeometry y="60" width="140" height="30" as="geometry" />
        </mxCell>
        <mxCell id="MjxS12knRDxMqoVgSw0H-136" value="Администратор" style="text;strokeColor=none;fillColor=none;align=left;verticalAlign=middle;spacingLeft=4;spacingRight=4;overflow=hidden;points=[[0,0.5],[1,0.5]];portConstraint=eastwest;rotatable=0;whiteSpace=wrap;html=1;" parent="MjxS12knRDxMqoVgSw0H-133" vertex="1">
          <mxGeometry y="90" width="140" height="30" as="geometry" />
        </mxCell>
        <mxCell id="MjxS12knRDxMqoVgSw0H-143" style="edgeStyle=orthogonalEdgeStyle;rounded=0;orthogonalLoop=1;jettySize=auto;html=1;exitX=0.5;exitY=1;exitDx=0;exitDy=0;" parent="1" source="MjxS12knRDxMqoVgSw0H-138" target="MjxS12knRDxMqoVgSw0H-79" edge="1">
          <mxGeometry relative="1" as="geometry" />
        </mxCell>
        <mxCell id="MjxS12knRDxMqoVgSw0H-138" value="Брокер сообщений" style="rounded=0;whiteSpace=wrap;html=1;" parent="1" vertex="1">
          <mxGeometry x="-1040" y="780" width="170" height="60" as="geometry" />
        </mxCell>
        <mxCell id="MjxS12knRDxMqoVgSw0H-153" style="edgeStyle=orthogonalEdgeStyle;rounded=0;orthogonalLoop=1;jettySize=auto;html=1;exitX=0.5;exitY=1;exitDx=0;exitDy=0;entryX=0.5;entryY=0;entryDx=0;entryDy=0;" parent="1" source="MjxS12knRDxMqoVgSw0H-145" target="MjxS12knRDxMqoVgSw0H-152" edge="1">
          <mxGeometry relative="1" as="geometry" />
        </mxCell>
        <mxCell id="MjxS12knRDxMqoVgSw0H-145" value="Сервис кошелька сохраняет данные о транзакции в отдельную бд" style="rounded=1;whiteSpace=wrap;html=1;" parent="1" vertex="1">
          <mxGeometry x="-1370" y="800" width="260" height="60" as="geometry" />
        </mxCell>
        <mxCell id="MjxS12knRDxMqoVgSw0H-147" style="edgeStyle=orthogonalEdgeStyle;rounded=0;orthogonalLoop=1;jettySize=auto;html=1;exitX=1;exitY=0.5;exitDx=0;exitDy=0;entryX=0;entryY=0.5;entryDx=0;entryDy=0;" parent="1" source="MjxS12knRDxMqoVgSw0H-1" target="MjxS12knRDxMqoVgSw0H-14" edge="1">
          <mxGeometry relative="1" as="geometry" />
        </mxCell>
        <mxCell id="MjxS12knRDxMqoVgSw0H-148" style="edgeStyle=orthogonalEdgeStyle;rounded=0;orthogonalLoop=1;jettySize=auto;html=1;exitX=0.5;exitY=1;exitDx=0;exitDy=0;entryX=0.5;entryY=0;entryDx=0;entryDy=0;" parent="1" source="MjxS12knRDxMqoVgSw0H-1" target="MjxS12knRDxMqoVgSw0H-7" edge="1">
          <mxGeometry relative="1" as="geometry" />
        </mxCell>
        <mxCell id="MjxS12knRDxMqoVgSw0H-149" value="БД для информаций о транзакциях и пополнениях" style="rounded=0;whiteSpace=wrap;html=1;" parent="1" vertex="1">
          <mxGeometry x="-395" y="200" width="170" height="80" as="geometry" />
        </mxCell>
        <mxCell id="MjxS12knRDxMqoVgSw0H-150" style="edgeStyle=orthogonalEdgeStyle;rounded=0;orthogonalLoop=1;jettySize=auto;html=1;exitX=1;exitY=0.5;exitDx=0;exitDy=0;" parent="1" source="MjxS12knRDxMqoVgSw0H-4" target="MjxS12knRDxMqoVgSw0H-149" edge="1">
          <mxGeometry relative="1" as="geometry" />
        </mxCell>
        <mxCell id="MjxS12knRDxMqoVgSw0H-151" style="edgeStyle=orthogonalEdgeStyle;rounded=0;orthogonalLoop=1;jettySize=auto;html=1;exitX=0;exitY=0.5;exitDx=0;exitDy=0;entryX=1;entryY=0.75;entryDx=0;entryDy=0;" parent="1" source="MjxS12knRDxMqoVgSw0H-4" target="MjxS12knRDxMqoVgSw0H-1" edge="1">
          <mxGeometry relative="1" as="geometry" />
        </mxCell>
        <mxCell id="MjxS12knRDxMqoVgSw0H-152" value="БД для транзакций" style="rounded=0;whiteSpace=wrap;html=1;" parent="1" vertex="1">
          <mxGeometry x="-1370" y="910" width="175" height="60" as="geometry" />
        </mxCell>
        <mxCell id="MjxS12knRDxMqoVgSw0H-155" style="edgeStyle=orthogonalEdgeStyle;rounded=0;orthogonalLoop=1;jettySize=auto;html=1;exitX=0.5;exitY=1;exitDx=0;exitDy=0;entryX=0.5;entryY=0;entryDx=0;entryDy=0;" parent="1" source="MjxS12knRDxMqoVgSw0H-24" target="MjxS12knRDxMqoVgSw0H-38" edge="1">
          <mxGeometry relative="1" as="geometry" />
        </mxCell>
        <mxCell id="MjxS12knRDxMqoVgSw0H-156" value="&amp;nbsp;" style="text;whiteSpace=wrap;html=1;" parent="1" vertex="1">
          <mxGeometry x="3710" y="2070" width="40" height="40" as="geometry" />
        </mxCell>
        <mxCell id="MjxS12knRDxMqoVgSw0H-165" style="edgeStyle=orthogonalEdgeStyle;rounded=0;orthogonalLoop=1;jettySize=auto;html=1;exitX=1;exitY=0.5;exitDx=0;exitDy=0;entryX=0;entryY=0.5;entryDx=0;entryDy=0;" parent="1" source="MjxS12knRDxMqoVgSw0H-158" target="MjxS12knRDxMqoVgSw0H-161" edge="1">
          <mxGeometry relative="1" as="geometry" />
        </mxCell>
        <mxCell id="MjxS12knRDxMqoVgSw0H-167" style="edgeStyle=orthogonalEdgeStyle;rounded=0;orthogonalLoop=1;jettySize=auto;html=1;exitX=0.5;exitY=1;exitDx=0;exitDy=0;" parent="1" source="MjxS12knRDxMqoVgSw0H-158" target="MjxS12knRDxMqoVgSw0H-160" edge="1">
          <mxGeometry relative="1" as="geometry" />
        </mxCell>
        <mxCell id="MjxS12knRDxMqoVgSw0H-158" value="Сервис кошелька" style="rounded=0;whiteSpace=wrap;html=1;" parent="1" vertex="1">
          <mxGeometry x="202" y="980" width="120" height="60" as="geometry" />
        </mxCell>
        <mxCell id="MjxS12knRDxMqoVgSw0H-159" value="&lt;div style=&quot;font-size: 13px;&quot; align=&quot;left&quot;&gt;&lt;font size=&quot;1&quot;&gt;&lt;b style=&quot;font-size: 20px;&quot;&gt;Архитектура сервиса кошелька:&lt;/b&gt;&lt;/font&gt;&lt;/div&gt;" style="text;html=1;align=left;verticalAlign=middle;whiteSpace=wrap;rounded=0;" parent="1" vertex="1">
          <mxGeometry x="40" y="880" width="140" height="80" as="geometry" />
        </mxCell>
        <mxCell id="MjxS12knRDxMqoVgSw0H-160" value="База данных транзакций" style="rounded=0;whiteSpace=wrap;html=1;" parent="1" vertex="1">
          <mxGeometry x="202" y="1080" width="120" height="60" as="geometry" />
        </mxCell>
        <mxCell id="MjxS12knRDxMqoVgSw0H-166" style="edgeStyle=orthogonalEdgeStyle;rounded=0;orthogonalLoop=1;jettySize=auto;html=1;exitX=1;exitY=0.5;exitDx=0;exitDy=0;entryX=0;entryY=0.5;entryDx=0;entryDy=0;" parent="1" source="MjxS12knRDxMqoVgSw0H-161" target="MjxS12knRDxMqoVgSw0H-162" edge="1">
          <mxGeometry relative="1" as="geometry" />
        </mxCell>
        <mxCell id="MjxS12knRDxMqoVgSw0H-161" value="Брокер сообщений RabbitMQ" style="rounded=0;whiteSpace=wrap;html=1;" parent="1" vertex="1">
          <mxGeometry x="362" y="980" width="120" height="60" as="geometry" />
        </mxCell>
        <mxCell id="MjxS12knRDxMqoVgSw0H-162" value="Backend приложения" style="rounded=0;whiteSpace=wrap;html=1;" parent="1" vertex="1">
          <mxGeometry x="522" y="980" width="120" height="60" as="geometry" />
        </mxCell>
        <mxCell id="MjxS12knRDxMqoVgSw0H-169" style="edgeStyle=orthogonalEdgeStyle;rounded=0;orthogonalLoop=1;jettySize=auto;html=1;exitX=1;exitY=0.5;exitDx=0;exitDy=0;entryX=0;entryY=0.5;entryDx=0;entryDy=0;" parent="1" source="MjxS12knRDxMqoVgSw0H-168" target="MjxS12knRDxMqoVgSw0H-158" edge="1">
          <mxGeometry relative="1" as="geometry" />
        </mxCell>
        <mxCell id="MjxS12knRDxMqoVgSw0H-168" value="Etherium нода" style="rounded=0;whiteSpace=wrap;html=1;" parent="1" vertex="1">
          <mxGeometry x="40" y="980" width="120" height="60" as="geometry" />
        </mxCell>
        <mxCell id="MjxS12knRDxMqoVgSw0H-170" value="&lt;div align=&quot;left&quot;&gt;&lt;b style=&quot;font-size: 20px;&quot;&gt;Frontend архитектура:&lt;/b&gt;&lt;br&gt;&lt;/div&gt;" style="text;html=1;align=left;verticalAlign=middle;whiteSpace=wrap;rounded=0;" parent="1" vertex="1">
          <mxGeometry x="530" y="80" width="150" height="60" as="geometry" />
        </mxCell>
        <mxCell id="MjxS12knRDxMqoVgSw0H-178" style="edgeStyle=orthogonalEdgeStyle;rounded=0;orthogonalLoop=1;jettySize=auto;html=1;exitX=0.25;exitY=1;exitDx=0;exitDy=0;entryX=0.5;entryY=0;entryDx=0;entryDy=0;" parent="1" source="MjxS12knRDxMqoVgSw0H-171" target="MjxS12knRDxMqoVgSw0H-172" edge="1">
          <mxGeometry relative="1" as="geometry" />
        </mxCell>
        <mxCell id="MjxS12knRDxMqoVgSw0H-179" style="edgeStyle=orthogonalEdgeStyle;rounded=0;orthogonalLoop=1;jettySize=auto;html=1;exitX=0.75;exitY=1;exitDx=0;exitDy=0;entryX=0.5;entryY=0;entryDx=0;entryDy=0;" parent="1" source="MjxS12knRDxMqoVgSw0H-171" target="MjxS12knRDxMqoVgSw0H-173" edge="1">
          <mxGeometry relative="1" as="geometry" />
        </mxCell>
        <mxCell id="MjxS12knRDxMqoVgSw0H-171" value="Страница логина" style="rounded=1;whiteSpace=wrap;html=1;" parent="1" vertex="1">
          <mxGeometry x="920" y="80" width="120" height="60" as="geometry" />
        </mxCell>
        <mxCell id="MjxS12knRDxMqoVgSw0H-180" style="edgeStyle=orthogonalEdgeStyle;rounded=0;orthogonalLoop=1;jettySize=auto;html=1;exitX=0.5;exitY=1;exitDx=0;exitDy=0;entryX=0.5;entryY=0;entryDx=0;entryDy=0;" parent="1" source="MjxS12knRDxMqoVgSw0H-172" target="MjxS12knRDxMqoVgSw0H-174" edge="1">
          <mxGeometry relative="1" as="geometry" />
        </mxCell>
        <mxCell id="MjxS12knRDxMqoVgSw0H-181" style="edgeStyle=orthogonalEdgeStyle;rounded=0;orthogonalLoop=1;jettySize=auto;html=1;exitX=0.25;exitY=1;exitDx=0;exitDy=0;entryX=0.5;entryY=0;entryDx=0;entryDy=0;" parent="1" source="MjxS12knRDxMqoVgSw0H-172" target="MjxS12knRDxMqoVgSw0H-176" edge="1">
          <mxGeometry relative="1" as="geometry" />
        </mxCell>
        <mxCell id="MjxS12knRDxMqoVgSw0H-182" style="edgeStyle=orthogonalEdgeStyle;rounded=0;orthogonalLoop=1;jettySize=auto;html=1;exitX=0;exitY=0.5;exitDx=0;exitDy=0;entryX=0.5;entryY=0;entryDx=0;entryDy=0;" parent="1" source="MjxS12knRDxMqoVgSw0H-172" target="MjxS12knRDxMqoVgSw0H-177" edge="1">
          <mxGeometry relative="1" as="geometry" />
        </mxCell>
        <mxCell id="4xnYYS_x8qnGNkjNe5Kq-3" style="edgeStyle=orthogonalEdgeStyle;rounded=0;orthogonalLoop=1;jettySize=auto;html=1;exitX=0.75;exitY=1;exitDx=0;exitDy=0;entryX=0.25;entryY=0;entryDx=0;entryDy=0;" parent="1" source="MjxS12knRDxMqoVgSw0H-172" target="4xnYYS_x8qnGNkjNe5Kq-1" edge="1">
          <mxGeometry relative="1" as="geometry">
            <Array as="points">
              <mxPoint x="932" y="280" />
              <mxPoint x="980" y="280" />
              <mxPoint x="980" y="380" />
              <mxPoint x="950" y="380" />
            </Array>
          </mxGeometry>
        </mxCell>
        <mxCell id="4xnYYS_x8qnGNkjNe5Kq-23" style="edgeStyle=orthogonalEdgeStyle;rounded=0;orthogonalLoop=1;jettySize=auto;html=1;exitX=0;exitY=0.25;exitDx=0;exitDy=0;entryX=0.5;entryY=0;entryDx=0;entryDy=0;" parent="1" source="MjxS12knRDxMqoVgSw0H-172" target="4xnYYS_x8qnGNkjNe5Kq-25" edge="1">
          <mxGeometry relative="1" as="geometry">
            <mxPoint x="410" y="250" as="targetPoint" />
          </mxGeometry>
        </mxCell>
        <mxCell id="MjxS12knRDxMqoVgSw0H-172" value="Я сотрудник" style="rounded=1;whiteSpace=wrap;html=1;" parent="1" vertex="1">
          <mxGeometry x="842" y="200" width="120" height="60" as="geometry" />
        </mxCell>
        <mxCell id="4xnYYS_x8qnGNkjNe5Kq-4" style="edgeStyle=orthogonalEdgeStyle;rounded=0;orthogonalLoop=1;jettySize=auto;html=1;exitX=0.25;exitY=1;exitDx=0;exitDy=0;entryX=0.75;entryY=0;entryDx=0;entryDy=0;" parent="1" source="MjxS12knRDxMqoVgSw0H-173" target="4xnYYS_x8qnGNkjNe5Kq-1" edge="1">
          <mxGeometry relative="1" as="geometry">
            <Array as="points">
              <mxPoint x="1032" y="280" />
              <mxPoint x="1000" y="280" />
              <mxPoint x="1000" y="380" />
              <mxPoint x="1030" y="380" />
            </Array>
          </mxGeometry>
        </mxCell>
        <mxCell id="4xnYYS_x8qnGNkjNe5Kq-21" style="edgeStyle=orthogonalEdgeStyle;rounded=0;orthogonalLoop=1;jettySize=auto;html=1;exitX=0.5;exitY=1;exitDx=0;exitDy=0;entryX=0.5;entryY=0;entryDx=0;entryDy=0;" parent="1" source="MjxS12knRDxMqoVgSw0H-173" target="4xnYYS_x8qnGNkjNe5Kq-5" edge="1">
          <mxGeometry relative="1" as="geometry" />
        </mxCell>
        <mxCell id="4xnYYS_x8qnGNkjNe5Kq-55" style="edgeStyle=orthogonalEdgeStyle;rounded=0;orthogonalLoop=1;jettySize=auto;html=1;exitX=1;exitY=0.75;exitDx=0;exitDy=0;entryX=0.25;entryY=0;entryDx=0;entryDy=0;" parent="1" source="MjxS12knRDxMqoVgSw0H-173" target="4xnYYS_x8qnGNkjNe5Kq-53" edge="1">
          <mxGeometry relative="1" as="geometry" />
        </mxCell>
        <mxCell id="MjxS12knRDxMqoVgSw0H-173" value="Я пользователь" style="rounded=1;whiteSpace=wrap;html=1;" parent="1" vertex="1">
          <mxGeometry x="1002" y="200" width="120" height="60" as="geometry" />
        </mxCell>
        <mxCell id="4xnYYS_x8qnGNkjNe5Kq-10" style="edgeStyle=orthogonalEdgeStyle;rounded=0;orthogonalLoop=1;jettySize=auto;html=1;exitX=0.5;exitY=1;exitDx=0;exitDy=0;entryX=0.75;entryY=0;entryDx=0;entryDy=0;" parent="1" source="MjxS12knRDxMqoVgSw0H-174" target="4xnYYS_x8qnGNkjNe5Kq-8" edge="1">
          <mxGeometry relative="1" as="geometry" />
        </mxCell>
        <mxCell id="MjxS12knRDxMqoVgSw0H-174" value="Страница заявок, назначенных вам" style="rounded=1;whiteSpace=wrap;html=1;" parent="1" vertex="1">
          <mxGeometry x="842" y="300" width="120" height="60" as="geometry" />
        </mxCell>
        <mxCell id="4xnYYS_x8qnGNkjNe5Kq-9" style="edgeStyle=orthogonalEdgeStyle;rounded=0;orthogonalLoop=1;jettySize=auto;html=1;exitX=0.5;exitY=1;exitDx=0;exitDy=0;entryX=0.25;entryY=0;entryDx=0;entryDy=0;" parent="1" source="MjxS12knRDxMqoVgSw0H-176" target="4xnYYS_x8qnGNkjNe5Kq-8" edge="1">
          <mxGeometry relative="1" as="geometry" />
        </mxCell>
        <mxCell id="MjxS12knRDxMqoVgSw0H-176" value="Страница всех заявок в сервисе" style="rounded=1;whiteSpace=wrap;html=1;" parent="1" vertex="1">
          <mxGeometry x="702" y="300" width="120" height="60" as="geometry" />
        </mxCell>
        <mxCell id="4xnYYS_x8qnGNkjNe5Kq-12" style="edgeStyle=orthogonalEdgeStyle;rounded=0;orthogonalLoop=1;jettySize=auto;html=1;exitX=0.5;exitY=1;exitDx=0;exitDy=0;entryX=0.5;entryY=0;entryDx=0;entryDy=0;" parent="1" source="MjxS12knRDxMqoVgSw0H-177" target="4xnYYS_x8qnGNkjNe5Kq-11" edge="1">
          <mxGeometry relative="1" as="geometry" />
        </mxCell>
        <mxCell id="MjxS12knRDxMqoVgSw0H-177" value="Страница кошельков сервиса" style="rounded=1;whiteSpace=wrap;html=1;" parent="1" vertex="1">
          <mxGeometry x="532" y="300" width="150" height="60" as="geometry" />
        </mxCell>
        <mxCell id="4xnYYS_x8qnGNkjNe5Kq-1" value="Страница настройки пользователя" style="rounded=1;whiteSpace=wrap;html=1;" parent="1" vertex="1">
          <mxGeometry x="910" y="400" width="160" height="60" as="geometry" />
        </mxCell>
        <mxCell id="4xnYYS_x8qnGNkjNe5Kq-7" style="edgeStyle=orthogonalEdgeStyle;rounded=0;orthogonalLoop=1;jettySize=auto;html=1;exitX=0.5;exitY=1;exitDx=0;exitDy=0;entryX=0.5;entryY=0;entryDx=0;entryDy=0;" parent="1" source="4xnYYS_x8qnGNkjNe5Kq-5" target="4xnYYS_x8qnGNkjNe5Kq-6" edge="1">
          <mxGeometry relative="1" as="geometry" />
        </mxCell>
        <mxCell id="4xnYYS_x8qnGNkjNe5Kq-5" value="Страница ваших заявок" style="rounded=1;whiteSpace=wrap;html=1;" parent="1" vertex="1">
          <mxGeometry x="1040" y="300" width="120" height="60" as="geometry" />
        </mxCell>
        <mxCell id="4xnYYS_x8qnGNkjNe5Kq-6" value="Страница заявки" style="rounded=1;whiteSpace=wrap;html=1;" parent="1" vertex="1">
          <mxGeometry x="1100" y="400" width="120" height="60" as="geometry" />
        </mxCell>
        <mxCell id="4xnYYS_x8qnGNkjNe5Kq-49" style="edgeStyle=orthogonalEdgeStyle;rounded=0;orthogonalLoop=1;jettySize=auto;html=1;exitX=0.5;exitY=1;exitDx=0;exitDy=0;" parent="1" source="4xnYYS_x8qnGNkjNe5Kq-8" target="4xnYYS_x8qnGNkjNe5Kq-48" edge="1">
          <mxGeometry relative="1" as="geometry" />
        </mxCell>
        <mxCell id="4xnYYS_x8qnGNkjNe5Kq-8" value="Страница заявки для сотрудника" style="rounded=1;whiteSpace=wrap;html=1;" parent="1" vertex="1">
          <mxGeometry x="760" y="400" width="120" height="60" as="geometry" />
        </mxCell>
        <mxCell id="4xnYYS_x8qnGNkjNe5Kq-14" style="edgeStyle=orthogonalEdgeStyle;rounded=0;orthogonalLoop=1;jettySize=auto;html=1;exitX=0.25;exitY=1;exitDx=0;exitDy=0;entryX=0.5;entryY=0;entryDx=0;entryDy=0;" parent="1" source="4xnYYS_x8qnGNkjNe5Kq-11" target="4xnYYS_x8qnGNkjNe5Kq-13" edge="1">
          <mxGeometry relative="1" as="geometry" />
        </mxCell>
        <mxCell id="4xnYYS_x8qnGNkjNe5Kq-17" style="edgeStyle=orthogonalEdgeStyle;rounded=0;orthogonalLoop=1;jettySize=auto;html=1;exitX=0.75;exitY=1;exitDx=0;exitDy=0;" parent="1" source="4xnYYS_x8qnGNkjNe5Kq-11" target="4xnYYS_x8qnGNkjNe5Kq-15" edge="1">
          <mxGeometry relative="1" as="geometry" />
        </mxCell>
        <mxCell id="4xnYYS_x8qnGNkjNe5Kq-11" value="Страница определенного кошелька" style="rounded=1;whiteSpace=wrap;html=1;" parent="1" vertex="1">
          <mxGeometry x="530" y="400" width="170" height="60" as="geometry" />
        </mxCell>
        <mxCell id="4xnYYS_x8qnGNkjNe5Kq-13" value="Страница транзакций кошелька" style="rounded=1;whiteSpace=wrap;html=1;" parent="1" vertex="1">
          <mxGeometry x="410" y="510" width="170" height="60" as="geometry" />
        </mxCell>
        <mxCell id="4xnYYS_x8qnGNkjNe5Kq-15" value="Страница информации о кошельке" style="rounded=1;whiteSpace=wrap;html=1;" parent="1" vertex="1">
          <mxGeometry x="600" y="510" width="170" height="60" as="geometry" />
        </mxCell>
        <mxCell id="4xnYYS_x8qnGNkjNe5Kq-32" style="edgeStyle=orthogonalEdgeStyle;rounded=0;orthogonalLoop=1;jettySize=auto;html=1;exitX=0;exitY=0.5;exitDx=0;exitDy=0;" parent="1" source="4xnYYS_x8qnGNkjNe5Kq-25" target="4xnYYS_x8qnGNkjNe5Kq-30" edge="1">
          <mxGeometry relative="1" as="geometry">
            <Array as="points">
              <mxPoint x="290" y="325" />
              <mxPoint x="290" y="380" />
              <mxPoint x="390" y="380" />
            </Array>
          </mxGeometry>
        </mxCell>
        <mxCell id="4xnYYS_x8qnGNkjNe5Kq-25" value="Старший менеджер или администратор" style="rhombus;whiteSpace=wrap;html=1;" parent="1" vertex="1">
          <mxGeometry x="310" y="280" width="180" height="90" as="geometry" />
        </mxCell>
        <mxCell id="4xnYYS_x8qnGNkjNe5Kq-34" style="edgeStyle=orthogonalEdgeStyle;rounded=0;orthogonalLoop=1;jettySize=auto;html=1;exitX=0.5;exitY=1;exitDx=0;exitDy=0;entryX=0.5;entryY=0;entryDx=0;entryDy=0;" parent="1" source="4xnYYS_x8qnGNkjNe5Kq-30" target="4xnYYS_x8qnGNkjNe5Kq-33" edge="1">
          <mxGeometry relative="1" as="geometry" />
        </mxCell>
        <mxCell id="4xnYYS_x8qnGNkjNe5Kq-46" style="edgeStyle=orthogonalEdgeStyle;rounded=0;orthogonalLoop=1;jettySize=auto;html=1;exitX=0;exitY=0.5;exitDx=0;exitDy=0;" parent="1" source="4xnYYS_x8qnGNkjNe5Kq-30" target="4xnYYS_x8qnGNkjNe5Kq-45" edge="1">
          <mxGeometry relative="1" as="geometry" />
        </mxCell>
        <mxCell id="4xnYYS_x8qnGNkjNe5Kq-30" value="Список сотрудников" style="rounded=1;whiteSpace=wrap;html=1;" parent="1" vertex="1">
          <mxGeometry x="320" y="400" width="140" height="60" as="geometry" />
        </mxCell>
        <mxCell id="4xnYYS_x8qnGNkjNe5Kq-41" style="edgeStyle=orthogonalEdgeStyle;rounded=0;orthogonalLoop=1;jettySize=auto;html=1;exitX=0;exitY=0.5;exitDx=0;exitDy=0;entryX=1;entryY=0.25;entryDx=0;entryDy=0;" parent="1" source="4xnYYS_x8qnGNkjNe5Kq-33" edge="1">
          <mxGeometry relative="1" as="geometry">
            <mxPoint x="200" y="557.5" as="targetPoint" />
          </mxGeometry>
        </mxCell>
        <mxCell id="4xnYYS_x8qnGNkjNe5Kq-43" style="edgeStyle=orthogonalEdgeStyle;rounded=0;orthogonalLoop=1;jettySize=auto;html=1;exitX=0.5;exitY=1;exitDx=0;exitDy=0;entryX=0.5;entryY=0;entryDx=0;entryDy=0;" parent="1" source="4xnYYS_x8qnGNkjNe5Kq-33" target="4xnYYS_x8qnGNkjNe5Kq-42" edge="1">
          <mxGeometry relative="1" as="geometry" />
        </mxCell>
        <mxCell id="4xnYYS_x8qnGNkjNe5Kq-33" value="Страница сотрудника" style="rounded=1;whiteSpace=wrap;html=1;" parent="1" vertex="1">
          <mxGeometry x="250" y="510" width="120" height="60" as="geometry" />
        </mxCell>
        <mxCell id="4xnYYS_x8qnGNkjNe5Kq-35" value="Информация о сотруднике" style="swimlane;fontStyle=0;childLayout=stackLayout;horizontal=1;startSize=40;horizontalStack=0;resizeParent=1;resizeParentMax=0;resizeLast=0;collapsible=1;marginBottom=0;whiteSpace=wrap;html=1;" parent="1" vertex="1">
          <mxGeometry x="90" y="680" width="160" height="150" as="geometry" />
        </mxCell>
        <mxCell id="4xnYYS_x8qnGNkjNe5Kq-36" value="Баланс (Средства, выделенные на обмен)" style="text;strokeColor=default;fillColor=none;align=left;verticalAlign=middle;spacingLeft=4;spacingRight=4;overflow=hidden;points=[[0,0.5],[1,0.5]];portConstraint=eastwest;rotatable=0;whiteSpace=wrap;html=1;" parent="4xnYYS_x8qnGNkjNe5Kq-35" vertex="1">
          <mxGeometry y="40" width="160" height="50" as="geometry" />
        </mxCell>
        <mxCell id="4xnYYS_x8qnGNkjNe5Kq-37" value="Контактные данные " style="text;strokeColor=default;fillColor=none;align=left;verticalAlign=middle;spacingLeft=4;spacingRight=4;overflow=hidden;points=[[0,0.5],[1,0.5]];portConstraint=eastwest;rotatable=0;whiteSpace=wrap;html=1;" parent="4xnYYS_x8qnGNkjNe5Kq-35" vertex="1">
          <mxGeometry y="90" width="160" height="30" as="geometry" />
        </mxCell>
        <mxCell id="4xnYYS_x8qnGNkjNe5Kq-38" value="Таблица транзакций" style="text;strokeColor=default;fillColor=none;align=left;verticalAlign=middle;spacingLeft=4;spacingRight=4;overflow=hidden;points=[[0,0.5],[1,0.5]];portConstraint=eastwest;rotatable=0;whiteSpace=wrap;html=1;" parent="4xnYYS_x8qnGNkjNe5Kq-35" vertex="1">
          <mxGeometry y="120" width="160" height="30" as="geometry" />
        </mxCell>
        <mxCell id="4xnYYS_x8qnGNkjNe5Kq-50" style="edgeStyle=orthogonalEdgeStyle;rounded=0;orthogonalLoop=1;jettySize=auto;html=1;exitX=0;exitY=0.5;exitDx=0;exitDy=0;entryX=0.5;entryY=0;entryDx=0;entryDy=0;" parent="1" source="4xnYYS_x8qnGNkjNe5Kq-42" target="4xnYYS_x8qnGNkjNe5Kq-35" edge="1">
          <mxGeometry relative="1" as="geometry" />
        </mxCell>
        <mxCell id="4xnYYS_x8qnGNkjNe5Kq-42" value="Страница настройки сотрудника" style="rounded=1;whiteSpace=wrap;html=1;" parent="1" vertex="1">
          <mxGeometry x="220" y="610" width="150" height="60" as="geometry" />
        </mxCell>
        <mxCell id="4xnYYS_x8qnGNkjNe5Kq-45" value="Страница создания сотрудника" style="rounded=1;whiteSpace=wrap;html=1;" parent="1" vertex="1">
          <mxGeometry x="100" y="440" width="120" height="60" as="geometry" />
        </mxCell>
        <mxCell id="4xnYYS_x8qnGNkjNe5Kq-47" value="&lt;i&gt;На странице заявки для пользователя должны присутствовать контактные данные с менеджером&lt;/i&gt;, назначенным на данную заявку." style="text;html=1;align=center;verticalAlign=middle;whiteSpace=wrap;rounded=0;" parent="1" vertex="1">
          <mxGeometry x="1230" y="390" width="150" height="110" as="geometry" />
        </mxCell>
        <mxCell id="4xnYYS_x8qnGNkjNe5Kq-48" value="Страница закрытия заявки" style="rounded=1;whiteSpace=wrap;html=1;" parent="1" vertex="1">
          <mxGeometry x="800" y="510" width="120" height="60" as="geometry" />
        </mxCell>
        <mxCell id="4xnYYS_x8qnGNkjNe5Kq-52" style="edgeStyle=orthogonalEdgeStyle;rounded=0;orthogonalLoop=1;jettySize=auto;html=1;exitX=0.5;exitY=1;exitDx=0;exitDy=0;entryX=0.75;entryY=0;entryDx=0;entryDy=0;" parent="1" source="4xnYYS_x8qnGNkjNe5Kq-51" target="MjxS12knRDxMqoVgSw0H-173" edge="1">
          <mxGeometry relative="1" as="geometry" />
        </mxCell>
        <mxCell id="4xnYYS_x8qnGNkjNe5Kq-51" value="Страница регистрации для пользователя" style="rounded=1;whiteSpace=wrap;html=1;" parent="1" vertex="1">
          <mxGeometry x="1080" y="80" width="120" height="60" as="geometry" />
        </mxCell>
        <mxCell id="4xnYYS_x8qnGNkjNe5Kq-53" value="Страница информации об обменнике (Курс, лимит, контакты и тд)" style="rounded=1;whiteSpace=wrap;html=1;" parent="1" vertex="1">
          <mxGeometry x="1200" y="300" width="170" height="60" as="geometry" />
        </mxCell>
        <mxCell id="4xnYYS_x8qnGNkjNe5Kq-84" style="edgeStyle=orthogonalEdgeStyle;rounded=0;orthogonalLoop=1;jettySize=auto;html=1;exitX=0;exitY=1;exitDx=0;exitDy=0;entryX=0.5;entryY=0;entryDx=0;entryDy=0;" parent="1" source="4xnYYS_x8qnGNkjNe5Kq-56" target="4xnYYS_x8qnGNkjNe5Kq-60" edge="1">
          <mxGeometry relative="1" as="geometry">
            <Array as="points">
              <mxPoint x="1172" y="650" />
              <mxPoint x="990" y="650" />
            </Array>
          </mxGeometry>
        </mxCell>
        <mxCell id="4xnYYS_x8qnGNkjNe5Kq-85" style="edgeStyle=orthogonalEdgeStyle;rounded=0;orthogonalLoop=1;jettySize=auto;html=1;exitX=0.25;exitY=1;exitDx=0;exitDy=0;entryX=0.5;entryY=0;entryDx=0;entryDy=0;" parent="1" source="4xnYYS_x8qnGNkjNe5Kq-56" target="4xnYYS_x8qnGNkjNe5Kq-59" edge="1">
          <mxGeometry relative="1" as="geometry">
            <Array as="points">
              <mxPoint x="1202" y="670" />
              <mxPoint x="1150" y="670" />
            </Array>
          </mxGeometry>
        </mxCell>
        <mxCell id="4xnYYS_x8qnGNkjNe5Kq-100" style="edgeStyle=orthogonalEdgeStyle;rounded=0;orthogonalLoop=1;jettySize=auto;html=1;exitX=0.5;exitY=1;exitDx=0;exitDy=0;entryX=0.25;entryY=0;entryDx=0;entryDy=0;" parent="1" source="4xnYYS_x8qnGNkjNe5Kq-56" target="4xnYYS_x8qnGNkjNe5Kq-61" edge="1">
          <mxGeometry relative="1" as="geometry">
            <Array as="points">
              <mxPoint x="1232" y="670" />
              <mxPoint x="1280" y="670" />
            </Array>
          </mxGeometry>
        </mxCell>
        <mxCell id="4xnYYS_x8qnGNkjNe5Kq-101" style="edgeStyle=orthogonalEdgeStyle;rounded=0;orthogonalLoop=1;jettySize=auto;html=1;exitX=0.75;exitY=1;exitDx=0;exitDy=0;entryX=0.25;entryY=0;entryDx=0;entryDy=0;" parent="1" source="4xnYYS_x8qnGNkjNe5Kq-56" target="4xnYYS_x8qnGNkjNe5Kq-62" edge="1">
          <mxGeometry relative="1" as="geometry" />
        </mxCell>
        <mxCell id="4xnYYS_x8qnGNkjNe5Kq-102" style="edgeStyle=orthogonalEdgeStyle;rounded=0;orthogonalLoop=1;jettySize=auto;html=1;exitX=1;exitY=1;exitDx=0;exitDy=0;entryX=0.25;entryY=0;entryDx=0;entryDy=0;" parent="1" source="4xnYYS_x8qnGNkjNe5Kq-56" target="4xnYYS_x8qnGNkjNe5Kq-63" edge="1">
          <mxGeometry relative="1" as="geometry">
            <Array as="points">
              <mxPoint x="1292" y="650" />
              <mxPoint x="1602" y="650" />
            </Array>
          </mxGeometry>
        </mxCell>
        <mxCell id="n0k_lMLok9dX7B7T1IZq-1" style="edgeStyle=orthogonalEdgeStyle;rounded=0;orthogonalLoop=1;jettySize=auto;html=1;exitX=1;exitY=0.75;exitDx=0;exitDy=0;entryX=0.5;entryY=0;entryDx=0;entryDy=0;" edge="1" parent="1" source="4xnYYS_x8qnGNkjNe5Kq-56" target="4xnYYS_x8qnGNkjNe5Kq-137">
          <mxGeometry relative="1" as="geometry">
            <Array as="points">
              <mxPoint x="1530" y="615" />
              <mxPoint x="1530" y="630" />
              <mxPoint x="1790" y="630" />
            </Array>
          </mxGeometry>
        </mxCell>
        <mxCell id="4xnYYS_x8qnGNkjNe5Kq-56" value="Backend" style="rounded=0;whiteSpace=wrap;html=1;" parent="1" vertex="1">
          <mxGeometry x="1172" y="570" width="120" height="60" as="geometry" />
        </mxCell>
        <mxCell id="4xnYYS_x8qnGNkjNe5Kq-58" value="&lt;div align=&quot;left&quot;&gt;&lt;b style=&quot;font-size: 20px;&quot;&gt;Backend архитектура:&lt;/b&gt;&lt;br&gt;&lt;/div&gt;" style="text;html=1;align=left;verticalAlign=middle;whiteSpace=wrap;rounded=0;" parent="1" vertex="1">
          <mxGeometry x="980" y="570" width="150" height="60" as="geometry" />
        </mxCell>
        <mxCell id="4xnYYS_x8qnGNkjNe5Kq-94" style="edgeStyle=orthogonalEdgeStyle;rounded=0;orthogonalLoop=1;jettySize=auto;html=1;exitX=0.5;exitY=1;exitDx=0;exitDy=0;entryX=0.5;entryY=0;entryDx=0;entryDy=0;" parent="1" source="4xnYYS_x8qnGNkjNe5Kq-59" target="4xnYYS_x8qnGNkjNe5Kq-86" edge="1">
          <mxGeometry relative="1" as="geometry" />
        </mxCell>
        <mxCell id="4xnYYS_x8qnGNkjNe5Kq-59" value="Пользователи" style="rounded=1;whiteSpace=wrap;html=1;" parent="1" vertex="1">
          <mxGeometry x="1090" y="690" width="120" height="60" as="geometry" />
        </mxCell>
        <mxCell id="4xnYYS_x8qnGNkjNe5Kq-74" style="edgeStyle=orthogonalEdgeStyle;rounded=0;orthogonalLoop=1;jettySize=auto;html=1;exitX=0.25;exitY=1;exitDx=0;exitDy=0;entryX=0.5;entryY=0;entryDx=0;entryDy=0;" parent="1" source="4xnYYS_x8qnGNkjNe5Kq-60" target="4xnYYS_x8qnGNkjNe5Kq-65" edge="1">
          <mxGeometry relative="1" as="geometry">
            <Array as="points">
              <mxPoint x="960" y="760" />
              <mxPoint x="772" y="760" />
            </Array>
          </mxGeometry>
        </mxCell>
        <mxCell id="4xnYYS_x8qnGNkjNe5Kq-76" style="edgeStyle=orthogonalEdgeStyle;rounded=0;orthogonalLoop=1;jettySize=auto;html=1;exitX=0.5;exitY=1;exitDx=0;exitDy=0;entryX=0.5;entryY=0;entryDx=0;entryDy=0;" parent="1" source="4xnYYS_x8qnGNkjNe5Kq-60" target="4xnYYS_x8qnGNkjNe5Kq-75" edge="1">
          <mxGeometry relative="1" as="geometry" />
        </mxCell>
        <mxCell id="4xnYYS_x8qnGNkjNe5Kq-60" value="Сотрудники" style="rounded=1;whiteSpace=wrap;html=1;" parent="1" vertex="1">
          <mxGeometry x="930" y="690" width="120" height="60" as="geometry" />
        </mxCell>
        <mxCell id="4xnYYS_x8qnGNkjNe5Kq-103" style="edgeStyle=orthogonalEdgeStyle;rounded=0;orthogonalLoop=1;jettySize=auto;html=1;exitX=0.5;exitY=1;exitDx=0;exitDy=0;entryX=0.5;entryY=0;entryDx=0;entryDy=0;" parent="1" source="4xnYYS_x8qnGNkjNe5Kq-61" target="4xnYYS_x8qnGNkjNe5Kq-95" edge="1">
          <mxGeometry relative="1" as="geometry" />
        </mxCell>
        <mxCell id="4xnYYS_x8qnGNkjNe5Kq-61" value="Транзакции" style="rounded=1;whiteSpace=wrap;html=1;" parent="1" vertex="1">
          <mxGeometry x="1250" y="690" width="120" height="60" as="geometry" />
        </mxCell>
        <mxCell id="4xnYYS_x8qnGNkjNe5Kq-113" style="edgeStyle=orthogonalEdgeStyle;rounded=0;orthogonalLoop=1;jettySize=auto;html=1;exitX=0.5;exitY=1;exitDx=0;exitDy=0;entryX=0.5;entryY=0;entryDx=0;entryDy=0;" parent="1" source="4xnYYS_x8qnGNkjNe5Kq-62" target="4xnYYS_x8qnGNkjNe5Kq-108" edge="1">
          <mxGeometry relative="1" as="geometry" />
        </mxCell>
        <mxCell id="4xnYYS_x8qnGNkjNe5Kq-62" value="Кошельки" style="rounded=1;whiteSpace=wrap;html=1;" parent="1" vertex="1">
          <mxGeometry x="1412" y="690" width="120" height="60" as="geometry" />
        </mxCell>
        <mxCell id="4xnYYS_x8qnGNkjNe5Kq-128" style="edgeStyle=orthogonalEdgeStyle;rounded=0;orthogonalLoop=1;jettySize=auto;html=1;exitX=0.5;exitY=1;exitDx=0;exitDy=0;entryX=0.5;entryY=0;entryDx=0;entryDy=0;" parent="1" source="4xnYYS_x8qnGNkjNe5Kq-63" target="4xnYYS_x8qnGNkjNe5Kq-120" edge="1">
          <mxGeometry relative="1" as="geometry" />
        </mxCell>
        <mxCell id="4xnYYS_x8qnGNkjNe5Kq-63" value="Заявки" style="rounded=1;whiteSpace=wrap;html=1;" parent="1" vertex="1">
          <mxGeometry x="1572" y="690" width="120" height="60" as="geometry" />
        </mxCell>
        <mxCell id="4xnYYS_x8qnGNkjNe5Kq-65" value="Эндпоинты" style="swimlane;fontStyle=0;childLayout=stackLayout;horizontal=1;startSize=30;horizontalStack=0;resizeParent=1;resizeParentMax=0;resizeLast=0;collapsible=1;marginBottom=0;whiteSpace=wrap;html=1;" parent="1" vertex="1">
          <mxGeometry x="702" y="795" width="140" height="290" as="geometry" />
        </mxCell>
        <mxCell id="4xnYYS_x8qnGNkjNe5Kq-66" value="Создать сотрудника" style="text;strokeColor=#b85450;fillColor=#f8cecc;align=left;verticalAlign=middle;spacingLeft=4;spacingRight=4;overflow=hidden;points=[[0,0.5],[1,0.5]];portConstraint=eastwest;rotatable=0;whiteSpace=wrap;html=1;" parent="4xnYYS_x8qnGNkjNe5Kq-65" vertex="1">
          <mxGeometry y="30" width="140" height="30" as="geometry" />
        </mxCell>
        <mxCell id="4xnYYS_x8qnGNkjNe5Kq-83" value="Получить информацию о сотруднике" style="text;strokeColor=#9673a6;fillColor=#e1d5e7;align=left;verticalAlign=middle;spacingLeft=4;spacingRight=4;overflow=hidden;points=[[0,0.5],[1,0.5]];portConstraint=eastwest;rotatable=0;whiteSpace=wrap;html=1;" parent="4xnYYS_x8qnGNkjNe5Kq-65" vertex="1">
          <mxGeometry y="60" width="140" height="50" as="geometry" />
        </mxCell>
        <mxCell id="4xnYYS_x8qnGNkjNe5Kq-105" value="Получить всех сотрудников" style="text;strokeColor=#9673a6;fillColor=#e1d5e7;align=left;verticalAlign=middle;spacingLeft=4;spacingRight=4;overflow=hidden;points=[[0,0.5],[1,0.5]];portConstraint=eastwest;rotatable=0;whiteSpace=wrap;html=1;" parent="4xnYYS_x8qnGNkjNe5Kq-65" vertex="1">
          <mxGeometry y="110" width="140" height="50" as="geometry" />
        </mxCell>
        <mxCell id="4xnYYS_x8qnGNkjNe5Kq-67" value="Изменить информацию о сотруднике" style="text;strokeColor=#b85450;fillColor=#f8cecc;align=left;verticalAlign=middle;spacingLeft=4;spacingRight=4;overflow=hidden;points=[[0,0.5],[1,0.5]];portConstraint=eastwest;rotatable=0;whiteSpace=wrap;html=1;" parent="4xnYYS_x8qnGNkjNe5Kq-65" vertex="1">
          <mxGeometry y="160" width="140" height="60" as="geometry" />
        </mxCell>
        <mxCell id="4xnYYS_x8qnGNkjNe5Kq-68" value="Удалить сотрудника" style="text;strokeColor=#b85450;fillColor=#f8cecc;align=left;verticalAlign=middle;spacingLeft=4;spacingRight=4;overflow=hidden;points=[[0,0.5],[1,0.5]];portConstraint=eastwest;rotatable=0;whiteSpace=wrap;html=1;" parent="4xnYYS_x8qnGNkjNe5Kq-65" vertex="1">
          <mxGeometry y="220" width="140" height="30" as="geometry" />
        </mxCell>
        <mxCell id="4xnYYS_x8qnGNkjNe5Kq-69" value="Изменить роль сотрудника" style="text;strokeColor=#b85450;fillColor=#f8cecc;align=left;verticalAlign=middle;spacingLeft=4;spacingRight=4;overflow=hidden;points=[[0,0.5],[1,0.5]];portConstraint=eastwest;rotatable=0;whiteSpace=wrap;html=1;" parent="4xnYYS_x8qnGNkjNe5Kq-65" vertex="1">
          <mxGeometry y="250" width="140" height="40" as="geometry" />
        </mxCell>
        <mxCell id="4xnYYS_x8qnGNkjNe5Kq-82" style="edgeStyle=orthogonalEdgeStyle;rounded=0;orthogonalLoop=1;jettySize=auto;html=1;exitX=0.5;exitY=1;exitDx=0;exitDy=0;entryX=0.5;entryY=0;entryDx=0;entryDy=0;" parent="1" source="4xnYYS_x8qnGNkjNe5Kq-75" target="4xnYYS_x8qnGNkjNe5Kq-77" edge="1">
          <mxGeometry relative="1" as="geometry" />
        </mxCell>
        <mxCell id="4xnYYS_x8qnGNkjNe5Kq-75" value="Баланс сотрудника" style="rounded=1;whiteSpace=wrap;html=1;" parent="1" vertex="1">
          <mxGeometry x="870" y="795" width="140" height="60" as="geometry" />
        </mxCell>
        <mxCell id="4xnYYS_x8qnGNkjNe5Kq-77" value="Эндпоинты" style="swimlane;fontStyle=0;childLayout=stackLayout;horizontal=1;startSize=30;horizontalStack=0;resizeParent=1;resizeParentMax=0;resizeLast=0;collapsible=1;marginBottom=0;whiteSpace=wrap;html=1;" parent="1" vertex="1">
          <mxGeometry x="870" y="1000" width="140" height="160" as="geometry" />
        </mxCell>
        <mxCell id="4xnYYS_x8qnGNkjNe5Kq-78" value="Получить баланс сотрудника" style="text;strokeColor=#9673a6;fillColor=#e1d5e7;align=left;verticalAlign=middle;spacingLeft=4;spacingRight=4;overflow=hidden;points=[[0,0.5],[1,0.5]];portConstraint=eastwest;rotatable=0;whiteSpace=wrap;html=1;" parent="4xnYYS_x8qnGNkjNe5Kq-77" vertex="1">
          <mxGeometry y="30" width="140" height="40" as="geometry" />
        </mxCell>
        <mxCell id="4xnYYS_x8qnGNkjNe5Kq-79" value="Пополнение баланса сотрудника" style="text;strokeColor=#b85450;fillColor=#f8cecc;align=left;verticalAlign=middle;spacingLeft=4;spacingRight=4;overflow=hidden;points=[[0,0.5],[1,0.5]];portConstraint=eastwest;rotatable=0;whiteSpace=wrap;html=1;" parent="4xnYYS_x8qnGNkjNe5Kq-77" vertex="1">
          <mxGeometry y="70" width="140" height="50" as="geometry" />
        </mxCell>
        <mxCell id="4xnYYS_x8qnGNkjNe5Kq-80" value="Изменение баланса сотрудника" style="text;strokeColor=#b85450;fillColor=#f8cecc;align=left;verticalAlign=middle;spacingLeft=4;spacingRight=4;overflow=hidden;points=[[0,0.5],[1,0.5]];portConstraint=eastwest;rotatable=0;whiteSpace=wrap;html=1;" parent="4xnYYS_x8qnGNkjNe5Kq-77" vertex="1">
          <mxGeometry y="120" width="140" height="40" as="geometry" />
        </mxCell>
        <mxCell id="4xnYYS_x8qnGNkjNe5Kq-86" value="Эндпоинты" style="swimlane;fontStyle=0;childLayout=stackLayout;horizontal=1;startSize=30;horizontalStack=0;resizeParent=1;resizeParentMax=0;resizeLast=0;collapsible=1;marginBottom=0;whiteSpace=wrap;html=1;" parent="1" vertex="1">
          <mxGeometry x="1032" y="795" width="140" height="230" as="geometry" />
        </mxCell>
        <mxCell id="4xnYYS_x8qnGNkjNe5Kq-90" value="Создание пользователя" style="text;strokeColor=#d79b00;fillColor=#ffe6cc;align=left;verticalAlign=middle;spacingLeft=4;spacingRight=4;overflow=hidden;points=[[0,0.5],[1,0.5]];portConstraint=eastwest;rotatable=0;whiteSpace=wrap;html=1;" parent="4xnYYS_x8qnGNkjNe5Kq-86" vertex="1">
          <mxGeometry y="30" width="140" height="40" as="geometry" />
        </mxCell>
        <mxCell id="4xnYYS_x8qnGNkjNe5Kq-87" value="Получить данные пользователя" style="text;strokeColor=#6c8ebf;fillColor=#dae8fc;align=left;verticalAlign=middle;spacingLeft=4;spacingRight=4;overflow=hidden;points=[[0,0.5],[1,0.5]];portConstraint=eastwest;rotatable=0;whiteSpace=wrap;html=1;" parent="4xnYYS_x8qnGNkjNe5Kq-86" vertex="1">
          <mxGeometry y="70" width="140" height="40" as="geometry" />
        </mxCell>
        <mxCell id="4xnYYS_x8qnGNkjNe5Kq-104" value="Получить всех пользователей" style="text;strokeColor=#d79b00;fillColor=#ffe6cc;align=left;verticalAlign=middle;spacingLeft=4;spacingRight=4;overflow=hidden;points=[[0,0.5],[1,0.5]];portConstraint=eastwest;rotatable=0;whiteSpace=wrap;html=1;" parent="4xnYYS_x8qnGNkjNe5Kq-86" vertex="1">
          <mxGeometry y="110" width="140" height="40" as="geometry" />
        </mxCell>
        <mxCell id="4xnYYS_x8qnGNkjNe5Kq-88" value="Изменение данных пользователя" style="text;strokeColor=#6c8ebf;fillColor=#dae8fc;align=left;verticalAlign=middle;spacingLeft=4;spacingRight=4;overflow=hidden;points=[[0,0.5],[1,0.5]];portConstraint=eastwest;rotatable=0;whiteSpace=wrap;html=1;" parent="4xnYYS_x8qnGNkjNe5Kq-86" vertex="1">
          <mxGeometry y="150" width="140" height="40" as="geometry" />
        </mxCell>
        <mxCell id="4xnYYS_x8qnGNkjNe5Kq-89" value="Удаление пользователя" style="text;strokeColor=#6c8ebf;fillColor=#dae8fc;align=left;verticalAlign=middle;spacingLeft=4;spacingRight=4;overflow=hidden;points=[[0,0.5],[1,0.5]];portConstraint=eastwest;rotatable=0;whiteSpace=wrap;html=1;" parent="4xnYYS_x8qnGNkjNe5Kq-86" vertex="1">
          <mxGeometry y="190" width="140" height="40" as="geometry" />
        </mxCell>
        <mxCell id="4xnYYS_x8qnGNkjNe5Kq-95" value="Эндпоинты" style="swimlane;fontStyle=0;childLayout=stackLayout;horizontal=1;startSize=30;horizontalStack=0;resizeParent=1;resizeParentMax=0;resizeLast=0;collapsible=1;marginBottom=0;whiteSpace=wrap;html=1;" parent="1" vertex="1">
          <mxGeometry x="1210" y="795" width="140" height="120" as="geometry" />
        </mxCell>
        <mxCell id="4xnYYS_x8qnGNkjNe5Kq-96" value="Получение списка транзакций" style="text;strokeColor=#d79b00;fillColor=#ffe6cc;align=left;verticalAlign=middle;spacingLeft=4;spacingRight=4;overflow=hidden;points=[[0,0.5],[1,0.5]];portConstraint=eastwest;rotatable=0;whiteSpace=wrap;html=1;" parent="4xnYYS_x8qnGNkjNe5Kq-95" vertex="1">
          <mxGeometry y="30" width="140" height="40" as="geometry" />
        </mxCell>
        <mxCell id="4xnYYS_x8qnGNkjNe5Kq-97" value="Получение определенной транзакции" style="text;strokeColor=#d79b00;fillColor=#ffe6cc;align=left;verticalAlign=middle;spacingLeft=4;spacingRight=4;overflow=hidden;points=[[0,0.5],[1,0.5]];portConstraint=eastwest;rotatable=0;whiteSpace=wrap;html=1;" parent="4xnYYS_x8qnGNkjNe5Kq-95" vertex="1">
          <mxGeometry y="70" width="140" height="50" as="geometry" />
        </mxCell>
        <mxCell id="4xnYYS_x8qnGNkjNe5Kq-108" value="Эндпоинты" style="swimlane;fontStyle=0;childLayout=stackLayout;horizontal=1;startSize=30;horizontalStack=0;resizeParent=1;resizeParentMax=0;resizeLast=0;collapsible=1;marginBottom=0;whiteSpace=wrap;html=1;" parent="1" vertex="1">
          <mxGeometry x="1392" y="795" width="140" height="160" as="geometry" />
        </mxCell>
        <mxCell id="4xnYYS_x8qnGNkjNe5Kq-109" value="Получение всех кошельков" style="text;strokeColor=#d79b00;fillColor=#ffe6cc;align=left;verticalAlign=middle;spacingLeft=4;spacingRight=4;overflow=hidden;points=[[0,0.5],[1,0.5]];portConstraint=eastwest;rotatable=0;whiteSpace=wrap;html=1;" parent="4xnYYS_x8qnGNkjNe5Kq-108" vertex="1">
          <mxGeometry y="30" width="140" height="40" as="geometry" />
        </mxCell>
        <mxCell id="4xnYYS_x8qnGNkjNe5Kq-110" value="Получение информации о кошельке" style="text;strokeColor=#d79b00;fillColor=#ffe6cc;align=left;verticalAlign=middle;spacingLeft=4;spacingRight=4;overflow=hidden;points=[[0,0.5],[1,0.5]];portConstraint=eastwest;rotatable=0;whiteSpace=wrap;html=1;" parent="4xnYYS_x8qnGNkjNe5Kq-108" vertex="1">
          <mxGeometry y="70" width="140" height="50" as="geometry" />
        </mxCell>
        <mxCell id="4xnYYS_x8qnGNkjNe5Kq-111" value="Получение баланса кошелька" style="text;strokeColor=#d79b00;fillColor=#ffe6cc;align=left;verticalAlign=middle;spacingLeft=4;spacingRight=4;overflow=hidden;points=[[0,0.5],[1,0.5]];portConstraint=eastwest;rotatable=0;whiteSpace=wrap;html=1;" parent="4xnYYS_x8qnGNkjNe5Kq-108" vertex="1">
          <mxGeometry y="120" width="140" height="40" as="geometry" />
        </mxCell>
        <mxCell id="4xnYYS_x8qnGNkjNe5Kq-118" style="edgeStyle=orthogonalEdgeStyle;rounded=0;orthogonalLoop=1;jettySize=auto;html=1;entryX=0.25;entryY=0;entryDx=0;entryDy=0;exitX=0.505;exitY=1.009;exitDx=0;exitDy=0;exitPerimeter=0;" parent="1" source="4xnYYS_x8qnGNkjNe5Kq-97" target="4xnYYS_x8qnGNkjNe5Kq-114" edge="1">
          <mxGeometry relative="1" as="geometry">
            <mxPoint x="1300" y="990" as="targetPoint" />
            <mxPoint x="1290" y="920" as="sourcePoint" />
            <Array as="points">
              <mxPoint x="1281" y="1000" />
              <mxPoint x="1315" y="1000" />
            </Array>
          </mxGeometry>
        </mxCell>
        <mxCell id="4xnYYS_x8qnGNkjNe5Kq-119" style="edgeStyle=orthogonalEdgeStyle;rounded=0;orthogonalLoop=1;jettySize=auto;html=1;exitX=0.339;exitY=1;exitDx=0;exitDy=0;exitPerimeter=0;entryX=0.75;entryY=0;entryDx=0;entryDy=0;" parent="1" source="4xnYYS_x8qnGNkjNe5Kq-111" target="4xnYYS_x8qnGNkjNe5Kq-114" edge="1">
          <mxGeometry relative="1" as="geometry">
            <mxPoint x="1460" y="960" as="targetPoint" />
          </mxGeometry>
        </mxCell>
        <mxCell id="4xnYYS_x8qnGNkjNe5Kq-114" value="Сервисы кошельков" style="rounded=0;whiteSpace=wrap;html=1;" parent="1" vertex="1">
          <mxGeometry x="1277" y="1040" width="150" height="60" as="geometry" />
        </mxCell>
        <mxCell id="4xnYYS_x8qnGNkjNe5Kq-120" value="Эндпоинты" style="swimlane;fontStyle=0;childLayout=stackLayout;horizontal=1;startSize=30;horizontalStack=0;resizeParent=1;resizeParentMax=0;resizeLast=0;collapsible=1;marginBottom=0;whiteSpace=wrap;html=1;" parent="1" vertex="1">
          <mxGeometry x="1562" y="795" width="140" height="350" as="geometry" />
        </mxCell>
        <mxCell id="4xnYYS_x8qnGNkjNe5Kq-127" value="Создание заявки" style="text;strokeColor=#6c8ebf;fillColor=#dae8fc;align=left;verticalAlign=middle;spacingLeft=4;spacingRight=4;overflow=hidden;points=[[0,0.5],[1,0.5]];portConstraint=eastwest;rotatable=0;whiteSpace=wrap;html=1;" parent="4xnYYS_x8qnGNkjNe5Kq-120" vertex="1">
          <mxGeometry y="30" width="140" height="30" as="geometry" />
        </mxCell>
        <mxCell id="4xnYYS_x8qnGNkjNe5Kq-121" value="Получение всех заявок" style="text;strokeColor=#d79b00;fillColor=#ffe6cc;align=left;verticalAlign=middle;spacingLeft=4;spacingRight=4;overflow=hidden;points=[[0,0.5],[1,0.5]];portConstraint=eastwest;rotatable=0;whiteSpace=wrap;html=1;" parent="4xnYYS_x8qnGNkjNe5Kq-120" vertex="1">
          <mxGeometry y="60" width="140" height="40" as="geometry" />
        </mxCell>
        <mxCell id="4xnYYS_x8qnGNkjNe5Kq-122" value="Получение заявок определенного пользователя" style="text;strokeColor=#6c8ebf;fillColor=#dae8fc;align=left;verticalAlign=middle;spacingLeft=4;spacingRight=4;overflow=hidden;points=[[0,0.5],[1,0.5]];portConstraint=eastwest;rotatable=0;whiteSpace=wrap;html=1;" parent="4xnYYS_x8qnGNkjNe5Kq-120" vertex="1">
          <mxGeometry y="100" width="140" height="50" as="geometry" />
        </mxCell>
        <mxCell id="4xnYYS_x8qnGNkjNe5Kq-123" value="Получение заявок определенного сотрудника" style="text;strokeColor=#d79b00;fillColor=#ffe6cc;align=left;verticalAlign=middle;spacingLeft=4;spacingRight=4;overflow=hidden;points=[[0,0.5],[1,0.5]];portConstraint=eastwest;rotatable=0;whiteSpace=wrap;html=1;" parent="4xnYYS_x8qnGNkjNe5Kq-120" vertex="1">
          <mxGeometry y="150" width="140" height="50" as="geometry" />
        </mxCell>
        <mxCell id="4xnYYS_x8qnGNkjNe5Kq-124" value="Получение информации о определенной заявке" style="text;strokeColor=#6c8ebf;fillColor=#dae8fc;align=left;verticalAlign=middle;spacingLeft=4;spacingRight=4;overflow=hidden;points=[[0,0.5],[1,0.5]];portConstraint=eastwest;rotatable=0;whiteSpace=wrap;html=1;" parent="4xnYYS_x8qnGNkjNe5Kq-120" vertex="1">
          <mxGeometry y="200" width="140" height="50" as="geometry" />
        </mxCell>
        <mxCell id="4xnYYS_x8qnGNkjNe5Kq-125" value="Изменение информации о заявки" style="text;strokeColor=#d79b00;fillColor=#ffe6cc;align=left;verticalAlign=middle;spacingLeft=4;spacingRight=4;overflow=hidden;points=[[0,0.5],[1,0.5]];portConstraint=eastwest;rotatable=0;whiteSpace=wrap;html=1;" parent="4xnYYS_x8qnGNkjNe5Kq-120" vertex="1">
          <mxGeometry y="250" width="140" height="50" as="geometry" />
        </mxCell>
        <mxCell id="4xnYYS_x8qnGNkjNe5Kq-126" value="Изменение статуса заявки" style="text;strokeColor=#d79b00;fillColor=#ffe6cc;align=left;verticalAlign=middle;spacingLeft=4;spacingRight=4;overflow=hidden;points=[[0,0.5],[1,0.5]];portConstraint=eastwest;rotatable=0;whiteSpace=wrap;html=1;" parent="4xnYYS_x8qnGNkjNe5Kq-120" vertex="1">
          <mxGeometry y="300" width="140" height="50" as="geometry" />
        </mxCell>
        <mxCell id="4xnYYS_x8qnGNkjNe5Kq-130" value="Доступ по ролям" style="swimlane;fontStyle=0;childLayout=stackLayout;horizontal=1;startSize=30;horizontalStack=0;resizeParent=1;resizeParentMax=0;resizeLast=0;collapsible=1;marginBottom=0;whiteSpace=wrap;html=1;" parent="1" vertex="1">
          <mxGeometry x="1650" y="380" width="140" height="220" as="geometry" />
        </mxCell>
        <mxCell id="4xnYYS_x8qnGNkjNe5Kq-131" value="Администратор" style="text;strokeColor=#b85450;fillColor=#f8cecc;align=left;verticalAlign=middle;spacingLeft=4;spacingRight=4;overflow=hidden;points=[[0,0.5],[1,0.5]];portConstraint=eastwest;rotatable=0;whiteSpace=wrap;html=1;" parent="4xnYYS_x8qnGNkjNe5Kq-130" vertex="1">
          <mxGeometry y="30" width="140" height="30" as="geometry" />
        </mxCell>
        <mxCell id="4xnYYS_x8qnGNkjNe5Kq-132" value="Администратор и старшие менеджеры" style="text;strokeColor=#9673a6;fillColor=#e1d5e7;align=left;verticalAlign=middle;spacingLeft=4;spacingRight=4;overflow=hidden;points=[[0,0.5],[1,0.5]];portConstraint=eastwest;rotatable=0;whiteSpace=wrap;html=1;" parent="4xnYYS_x8qnGNkjNe5Kq-130" vertex="1">
          <mxGeometry y="60" width="140" height="40" as="geometry" />
        </mxCell>
        <mxCell id="4xnYYS_x8qnGNkjNe5Kq-133" value="Все сотрудники" style="text;strokeColor=#d79b00;fillColor=#ffe6cc;align=left;verticalAlign=middle;spacingLeft=4;spacingRight=4;overflow=hidden;points=[[0,0.5],[1,0.5]];portConstraint=eastwest;rotatable=0;whiteSpace=wrap;html=1;" parent="4xnYYS_x8qnGNkjNe5Kq-130" vertex="1">
          <mxGeometry y="100" width="140" height="30" as="geometry" />
        </mxCell>
        <mxCell id="4xnYYS_x8qnGNkjNe5Kq-134" value="Пользователь" style="text;strokeColor=#6c8ebf;fillColor=#dae8fc;align=left;verticalAlign=middle;spacingLeft=4;spacingRight=4;overflow=hidden;points=[[0,0.5],[1,0.5]];portConstraint=eastwest;rotatable=0;whiteSpace=wrap;html=1;" parent="4xnYYS_x8qnGNkjNe5Kq-130" vertex="1">
          <mxGeometry y="130" width="140" height="30" as="geometry" />
        </mxCell>
        <mxCell id="4xnYYS_x8qnGNkjNe5Kq-135" value="Все пользователи" style="text;strokeColor=#82b366;fillColor=#d5e8d4;align=left;verticalAlign=middle;spacingLeft=4;spacingRight=4;overflow=hidden;points=[[0,0.5],[1,0.5]];portConstraint=eastwest;rotatable=0;whiteSpace=wrap;html=1;" parent="4xnYYS_x8qnGNkjNe5Kq-130" vertex="1">
          <mxGeometry y="160" width="140" height="30" as="geometry" />
        </mxCell>
        <mxCell id="4xnYYS_x8qnGNkjNe5Kq-136" value="Без ограничений" style="text;align=left;verticalAlign=middle;spacingLeft=4;spacingRight=4;overflow=hidden;points=[[0,0.5],[1,0.5]];portConstraint=eastwest;rotatable=0;whiteSpace=wrap;html=1;" parent="4xnYYS_x8qnGNkjNe5Kq-130" vertex="1">
          <mxGeometry y="190" width="140" height="30" as="geometry" />
        </mxCell>
        <mxCell id="n0k_lMLok9dX7B7T1IZq-2" style="edgeStyle=orthogonalEdgeStyle;rounded=0;orthogonalLoop=1;jettySize=auto;html=1;exitX=0.5;exitY=1;exitDx=0;exitDy=0;entryX=0.5;entryY=0;entryDx=0;entryDy=0;" edge="1" parent="1" source="4xnYYS_x8qnGNkjNe5Kq-137" target="4xnYYS_x8qnGNkjNe5Kq-138">
          <mxGeometry relative="1" as="geometry" />
        </mxCell>
        <mxCell id="4xnYYS_x8qnGNkjNe5Kq-137" value="Авторизация" style="rounded=1;whiteSpace=wrap;html=1;" parent="1" vertex="1">
          <mxGeometry x="1730" y="690" width="120" height="60" as="geometry" />
        </mxCell>
        <mxCell id="4xnYYS_x8qnGNkjNe5Kq-138" value="Эндпоинты" style="swimlane;fontStyle=0;childLayout=stackLayout;horizontal=1;startSize=30;horizontalStack=0;resizeParent=1;resizeParentMax=0;resizeLast=0;collapsible=1;marginBottom=0;whiteSpace=wrap;html=1;" parent="1" vertex="1">
          <mxGeometry x="1730" y="795" width="140" height="260" as="geometry" />
        </mxCell>
        <mxCell id="4xnYYS_x8qnGNkjNe5Kq-139" value="Создание пользователя" style="text;strokeColor=default;fillColor=none;align=left;verticalAlign=middle;spacingLeft=4;spacingRight=4;overflow=hidden;points=[[0,0.5],[1,0.5]];portConstraint=eastwest;rotatable=0;whiteSpace=wrap;html=1;" parent="4xnYYS_x8qnGNkjNe5Kq-138" vertex="1">
          <mxGeometry y="30" width="140" height="40" as="geometry" />
        </mxCell>
        <mxCell id="4xnYYS_x8qnGNkjNe5Kq-140" value="Обновление токенов" style="text;strokeColor=default;fillColor=none;align=left;verticalAlign=middle;spacingLeft=4;spacingRight=4;overflow=hidden;points=[[0,0.5],[1,0.5]];portConstraint=eastwest;rotatable=0;whiteSpace=wrap;html=1;" parent="4xnYYS_x8qnGNkjNe5Kq-138" vertex="1">
          <mxGeometry y="70" width="140" height="40" as="geometry" />
        </mxCell>
        <mxCell id="4xnYYS_x8qnGNkjNe5Kq-141" value="Выход из приложения (Обнуление токенов)" style="text;strokeColor=default;fillColor=none;align=left;verticalAlign=middle;spacingLeft=4;spacingRight=4;overflow=hidden;points=[[0,0.5],[1,0.5]];portConstraint=eastwest;rotatable=0;whiteSpace=wrap;html=1;" parent="4xnYYS_x8qnGNkjNe5Kq-138" vertex="1">
          <mxGeometry y="110" width="140" height="50" as="geometry" />
        </mxCell>
        <mxCell id="4xnYYS_x8qnGNkjNe5Kq-142" value="Вход в приложение по логину и паролю" style="text;strokeColor=default;fillColor=none;align=left;verticalAlign=middle;spacingLeft=4;spacingRight=4;overflow=hidden;points=[[0,0.5],[1,0.5]];portConstraint=eastwest;rotatable=0;whiteSpace=wrap;html=1;" parent="4xnYYS_x8qnGNkjNe5Kq-138" vertex="1">
          <mxGeometry y="160" width="140" height="50" as="geometry" />
        </mxCell>
        <mxCell id="4xnYYS_x8qnGNkjNe5Kq-145" value="Обновление 2FA" style="text;strokeColor=default;fillColor=none;align=left;verticalAlign=middle;spacingLeft=4;spacingRight=4;overflow=hidden;points=[[0,0.5],[1,0.5]];portConstraint=eastwest;rotatable=0;whiteSpace=wrap;html=1;" parent="4xnYYS_x8qnGNkjNe5Kq-138" vertex="1">
          <mxGeometry y="210" width="140" height="50" as="geometry" />
        </mxCell>
      </root>
    </mxGraphModel>
  </diagram>
</mxfile>
